<svg width="65" height="65" viewBox="0 0 65 65" fill="none" xmlns="http://www.w3.org/2000/svg">
<path d="M45.8586 2.03076H44.8586V3.03076H45.8586V2.03076Z" fill="white" fill-opacity="0.06"/>
<path d="M59.8586 2.03076H58.8586V3.03076H59.8586V2.03076Z" fill="white" fill-opacity="0.06"/>
<path d="M50.8586 5.03076H49.8586V6.03076H50.8586V5.03076Z" fill="white" fill-opacity="0.06"/>
<path d="M41.8586 6.03076H40.8586V7.03076H41.8586V6.03076Z" fill="white" fill-opacity="0.06"/>
<path d="M43.8586 6.03076H42.8586V7.03076H43.8586V6.03076Z" fill="white" fill-opacity="0.06"/>
<path d="M61.8586 6.03076H60.8586V7.03076H61.8586V6.03076Z" fill="white" fill-opacity="0.06"/>
<path d="M45.8586 10.0308H44.8586V11.0308H45.8586V10.0308Z" fill="white" fill-opacity="0.06"/>
<path d="M54.8586 10.0308H53.8586V11.0308H54.8586V10.0308Z" fill="white" fill-opacity="0.06"/>
<path d="M59.8586 10.0308H58.8586V11.0308H59.8586V10.0308Z" fill="white" fill-opacity="0.06"/>
<path d="M32.8586 11.0308H31.8586V12.0308H32.8586V11.0308Z" fill="white" fill-opacity="0.06"/>
<path d="M15.8586 12.0308H14.8586V13.0308H15.8586V12.0308Z" fill="white" fill-opacity="0.06"/>
<path d="M44.8586 14.0308H43.8586V15.0308H44.8586V14.0308Z" fill="white" fill-opacity="0.06"/>
<path d="M50.8586 14.0308H49.8586V15.0308H50.8586V14.0308Z" fill="white" fill-opacity="0.06"/>
<path d="M54.8586 14.0308H53.8586V15.0308H54.8586V14.0308Z" fill="white" fill-opacity="0.06"/>
<path d="M41.8586 16.0308V17.0308H43.8586L41.8586 16.0308Z" fill="white" fill-opacity="0.06"/>
<path d="M62.8586 16.0308L60.8586 17.0308H62.8586V16.0308Z" fill="white" fill-opacity="0.06"/>
<path d="M34.8586 27.0308H33.8586V28.0308H34.8586V27.0308Z" fill="white" fill-opacity="0.06"/>
<path d="M52.8586 1.03076H51.8586V2.03076H52.8586V1.03076Z" fill="white" fill-opacity="0.09"/>
<path d="M54.8586 5.03076H53.8586V6.03076H54.8586V5.03076Z" fill="white" fill-opacity="0.09"/>
<path d="M40.8586 6.03076H39.8586V7.03076H40.8586V6.03076Z" fill="white" fill-opacity="0.09"/>
<path d="M50.8586 6.03076H49.8586V7.03076H50.8586V6.03076Z" fill="white" fill-opacity="0.09"/>
<path d="M30.8586 8.03076H29.8586V9.03076H30.8586V8.03076Z" fill="white" fill-opacity="0.09"/>
<path d="M16.8586 9.03076H17.8586V10.0308H16.8586V11.0308H15.8586V10.0308H16.8586V9.03076Z" fill="white" fill-opacity="0.09"/>
<path d="M50.8586 9.03076H49.8586V10.0308H50.8586V9.03076Z" fill="white" fill-opacity="0.09"/>
<path d="M50.8586 13.0308H49.8586V14.0308H50.8586V13.0308Z" fill="white" fill-opacity="0.09"/>
<path d="M15.8586 17.0308V19.0308H16.8586V17.0308H15.8586Z" fill="white" fill-opacity="0.09"/>
<path d="M33.8586 18.0308H32.8586V19.0308H33.8586V18.0308Z" fill="white" fill-opacity="0.09"/>
<path d="M46.8586 19.0308H45.8586V20.0308H46.8586V19.0308Z" fill="white" fill-opacity="0.09"/>
<path d="M58.8586 19.0308H57.8586V20.0308H58.8586V19.0308Z" fill="white" fill-opacity="0.09"/>
<path d="M50.8586 20.0308H49.8586V21.0308H50.8586V20.0308Z" fill="white" fill-opacity="0.09"/>
<path d="M54.8586 20.0308H53.8586V21.0308H54.8586V20.0308Z" fill="white" fill-opacity="0.09"/>
<path d="M15.8586 21.0308H14.8586V22.0308H15.8586V21.0308Z" fill="white" fill-opacity="0.09"/>
<path d="M16.8586 30.0308H15.8586V31.0308H16.8586V30.0308Z" fill="white" fill-opacity="0.09"/>
<path d="M42.8586 39.0308V42.0308H43.8586L42.8586 39.0308Z" fill="white" fill-opacity="0.09"/>
<path d="M42.8586 48.0308V58.0308H43.8586V51.0308V50.0308V49.0308V48.0308H42.8586Z" fill="white" fill-opacity="0.09"/>
<path d="M5.85864 50.0308H4.85864V51.0308H5.85864V50.0308Z" fill="white" fill-opacity="0.09"/>
<path d="M5.85864 54.0308H4.85864V55.0308H5.85864V54.0308Z" fill="white" fill-opacity="0.09"/>
<path d="M3.85864 61.0308H2.85864V62.0308H3.85864V61.0308Z" fill="white" fill-opacity="0.09"/>
<path d="M49.8586 0.0307617H48.8586V1.03076H49.8586V0.0307617Z" fill="white" fill-opacity="0.14"/>
<path d="M55.8586 0.0307617H54.8586V1.03076H55.8586V0.0307617Z" fill="white" fill-opacity="0.14"/>
<path d="M46.8586 2.03076H45.8586V3.03076H46.8586V2.03076Z" fill="white" fill-opacity="0.14"/>
<path d="M58.8586 2.03076H57.8586V3.03076H58.8586V2.03076Z" fill="white" fill-opacity="0.14"/>
<path d="M50.8586 3.03076H49.8586V4.03076H50.8586V3.03076Z" fill="white" fill-opacity="0.14"/>
<path d="M54.8586 3.03076H53.8586V4.03076H54.8586V3.03076Z" fill="white" fill-opacity="0.14"/>
<path d="M54.8586 6.03076H53.8586V7.03076H54.8586V6.03076Z" fill="white" fill-opacity="0.14"/>
<path d="M19.8586 8.03076H18.8586V9.03076H19.8586V8.03076Z" fill="white" fill-opacity="0.14"/>
<path d="M54.8586 9.03076H53.8586V10.0308H54.8586V9.03076Z" fill="white" fill-opacity="0.14"/>
<path d="M31.8586 10.0308H30.8586V11.0308H31.8586V10.0308Z" fill="white" fill-opacity="0.14"/>
<path d="M46.8586 10.0308H45.8586V11.0308H46.8586V10.0308Z" fill="white" fill-opacity="0.14"/>
<path d="M58.8586 10.0308H57.8586V11.0308H58.8586V10.0308Z" fill="white" fill-opacity="0.14"/>
<path d="M54.8586 13.0308H53.8586V14.0308H54.8586V13.0308Z" fill="white" fill-opacity="0.14"/>
<path d="M45.8586 14.0308H44.8586V15.0308H45.8586V14.0308Z" fill="white" fill-opacity="0.14"/>
<path d="M58.8586 14.0308H57.8586V15.0308H58.8586V14.0308Z" fill="white" fill-opacity="0.14"/>
<path d="M22.8586 17.0308H21.8586V18.0308H22.8586V17.0308Z" fill="white" fill-opacity="0.14"/>
<path d="M64.8586 18.0308H63.8586V19.0308H64.8586V18.0308Z" fill="white" fill-opacity="0.14"/>
<path d="M15.8586 28.0308H14.8586V29.0308H15.8586V28.0308Z" fill="white" fill-opacity="0.14"/>
<path d="M22.8586 34.0308H21.8586V35.0308H22.8586V34.0308Z" fill="white" fill-opacity="0.14"/>
<path d="M3.85864 60.0308H2.85864V61.0308H3.85864V60.0308Z" fill="white" fill-opacity="0.14"/>
<path d="M21.8586 16.0308H20.8586V17.0308H21.8586V16.0308Z" fill="white" fill-opacity="0.2"/>
<path d="M40.8586 18.0308H39.8586V19.0308H40.8586V18.0308Z" fill="white" fill-opacity="0.2"/>
<path d="M26.8586 19.0308H25.8586V20.0308H26.8586V19.0308Z" fill="white" fill-opacity="0.2"/>
<path d="M13.8586 21.0308V23.0308H14.8586V22.0308V21.0308H13.8586Z" fill="white" fill-opacity="0.2"/>
<path d="M12.8586 24.0308H11.8586V25.0308H12.8586V24.0308Z" fill="white" fill-opacity="0.2"/>
<path d="M17.8586 26.0308H16.8586V27.0308H17.8586V26.0308Z" fill="white" fill-opacity="0.2"/>
<path d="M16.8586 31.0308H17.8586V32.0308H18.8586V33.0308H17.8586V32.0308H16.8586V31.0308Z" fill="white" fill-opacity="0.2"/>
<path d="M4.85864 39.0308V42.0308H5.85864V39.0308H4.85864Z" fill="white" fill-opacity="0.2"/>
<path d="M4.85864 48.0308V49.0308V50.0308H5.85864V48.0308H4.85864Z" fill="white" fill-opacity="0.2"/>
<path d="M4.85864 55.0308V58.0308H5.85864V55.0308H4.85864Z" fill="white" fill-opacity="0.2"/>
<path d="M45.8586 61.0308H44.8586V62.0308H45.8586V61.0308Z" fill="white" fill-opacity="0.2"/>
<path d="M47.8586 4.03076H46.8586V5.03076H47.8586V4.03076Z" fill="#FFF5F5" fill-opacity="0.27"/>
<path d="M57.8586 4.03076H56.8586V5.03076H57.8586V4.03076Z" fill="#FFF5F5" fill-opacity="0.27"/>
<path d="M44.8586 6.03076H43.8586V7.03076H44.8586V6.03076Z" fill="#FFF5F5" fill-opacity="0.27"/>
<path d="M60.8586 6.03076H59.8586V7.03076H60.8586V6.03076Z" fill="#FFF5F5" fill-opacity="0.27"/>
<path d="M33.8586 11.0308H32.8586V12.0308H33.8586V11.0308Z" fill="#FFF5F5" fill-opacity="0.27"/>
<path d="M48.8586 12.0308H47.8586V13.0308H48.8586V12.0308Z" fill="#FFF5F5" fill-opacity="0.27"/>
<path d="M56.8586 12.0308H55.8586V13.0308H56.8586V12.0308Z" fill="#FFF5F5" fill-opacity="0.27"/>
<path d="M33.8586 13.0308V18.0308H34.8586V13.0308H33.8586Z" fill="#FFF5F5" fill-opacity="0.27"/>
<path d="M46.8586 14.0308H45.8586V15.0308H46.8586V14.0308Z" fill="#FFF5F5" fill-opacity="0.27"/>
<path d="M47.8586 19.0308H46.8586V20.0308H47.8586V19.0308Z" fill="#FFF5F5" fill-opacity="0.27"/>
<path d="M57.8586 19.0308H56.8586V20.0308H57.8586V19.0308Z" fill="#FFF5F5" fill-opacity="0.27"/>
<path d="M33.8586 21.0308V23.0308H34.8586V21.0308H33.8586Z" fill="#FFF5F5" fill-opacity="0.27"/>
<path d="M34.8586 26.0308H33.8586V27.0308H34.8586V26.0308Z" fill="#FFF5F5" fill-opacity="0.27"/>
<path d="M33.8586 29.0308H32.8586V30.0308H33.8586V29.0308Z" fill="#FFF5F5" fill-opacity="0.27"/>
<path d="M26.8586 34.0308H25.8586V35.0308H26.8586V34.0308Z" fill="#FFF5F5" fill-opacity="0.27"/>
<path d="M43.8586 42.0308H42.8586V43.0308H43.8586V42.0308Z" fill="#FFF5F5" fill-opacity="0.27"/>
<path d="M2.85864 49.0308H1.85864V50.0308H2.85864V49.0308Z" fill="#FFF5F5" fill-opacity="0.27"/>
<path d="M46.8586 50.0308H45.8586V51.0308H46.8586V50.0308Z" fill="#FFF5F5" fill-opacity="0.27"/>
<path d="M40.8586 0.0307617H39.8586V1.03076H40.8586V0.0307617Z" fill="#FFFBFB" fill-opacity="0.34"/>
<path d="M64.8586 0.0307617H63.8586V1.03076H64.8586V0.0307617Z" fill="#FFFBFB" fill-opacity="0.34"/>
<path d="M47.8586 2.03076H46.8586V3.03076H47.8586V2.03076Z" fill="#FFFBFB" fill-opacity="0.34"/>
<path d="M57.8586 2.03076H56.8586V3.03076H57.8586V2.03076Z" fill="#FFFBFB" fill-opacity="0.34"/>
<path d="M45.8586 6.03076H44.8586V7.03076H45.8586V6.03076Z" fill="#FFFBFB" fill-opacity="0.34"/>
<path d="M59.8586 6.03076H58.8586V7.03076H59.8586V6.03076Z" fill="#FFFBFB" fill-opacity="0.34"/>
<path d="M48.8586 8.03076H47.8586V9.03076H48.8586V8.03076Z" fill="#FFFBFB" fill-opacity="0.34"/>
<path d="M56.8586 8.03076H55.8586V9.03076H56.8586V8.03076Z" fill="#FFFBFB" fill-opacity="0.34"/>
<path d="M47.8586 10.0308H46.8586V11.0308H47.8586V10.0308Z" fill="#FFFBFB" fill-opacity="0.34"/>
<path d="M57.8586 10.0308H56.8586V11.0308H57.8586V10.0308Z" fill="#FFFBFB" fill-opacity="0.34"/>
<path d="M34.8586 12.0308H33.8586V13.0308H34.8586V12.0308Z" fill="#FFFBFB" fill-opacity="0.34"/>
<path d="M30.8586 19.0308H29.8586V20.0308H30.8586V19.0308Z" fill="#FFFBFB" fill-opacity="0.34"/>
<path d="M17.8586 21.0308H16.8586V22.0308H17.8586V21.0308Z" fill="#FFFBFB" fill-opacity="0.34"/>
<path d="M34.8586 23.0308H33.8586V24.0308H34.8586V23.0308Z" fill="#FFFBFB" fill-opacity="0.34"/>
<path d="M36.8586 24.0308H35.8586V25.0308H36.8586V24.0308Z" fill="#FFFBFB" fill-opacity="0.34"/>
<path d="M13.8586 25.0308H12.8586V26.0308H13.8586V25.0308Z" fill="#FFFBFB" fill-opacity="0.34"/>
<path d="M22.8586 34.0308L21.8586 35.0308H20.8586V36.0308H27.8586V35.0308H26.8586H25.8586L23.8586 34.0308H22.8586Z" fill="#FFFBFB" fill-opacity="0.34"/>
<path d="M8.85864 35.0308V36.0308H17.8586V35.0308H8.85864Z" fill="#FFFBFB" fill-opacity="0.34"/>
<path d="M30.8586 35.0308V36.0308H39.8586V35.0308H30.8586Z" fill="#FFFBFB" fill-opacity="0.34"/>
<path d="M5.85864 47.0308H4.85864V48.0308H5.85864V47.0308Z" fill="#FFFBFB" fill-opacity="0.34"/>
<path d="M43.8586 47.0308H42.8586V48.0308H43.8586V47.0308Z" fill="#FFFBFB" fill-opacity="0.34"/>
<path d="M45.8586 51.0308V58.0308H46.8586V51.0308H45.8586Z" fill="#FFFBFB" fill-opacity="0.34"/>
<path fill-rule="evenodd" clip-rule="evenodd" d="M47.8586 0.0307617H48.8586V1.03076H47.8586V0.0307617ZM55.8586 0.0307617H56.8586V1.03076H55.8586V0.0307617ZM14.8586 11.0308H15.8586V12.0308H14.8586V11.0308ZM46.8586 14.0308H47.8586V15.0308H46.8586V14.0308ZM56.8586 14.0308H57.8586V15.0308H56.8586V14.0308ZM18.8586 16.0308L20.8586 15.0308V16.0308H18.8586ZM27.8586 18.0308V17.0308H29.8586V18.0308H27.8586ZM23.8586 18.0308H24.8586V19.0308H23.8586V18.0308ZM33.8586 18.0308H34.8586V19.0308H33.8586V18.0308ZM26.8586 19.0308H27.8586V20.0308H26.8586V19.0308ZM50.8586 20.0308H51.8586V21.0308H50.8586V20.0308ZM52.8586 20.0308H53.8586V21.0308H52.8586V20.0308ZM15.8586 21.0308H16.8586V22.0308H15.8586V21.0308ZM13.8586 23.0308H14.8586V24.0308H13.8586V23.0308ZM25.8586 35.0308L23.8586 34.0308H25.8586V35.0308ZM4.85864 42.0308H5.85864V43.0308H4.85864V42.0308ZM44.8586 46.0308H45.8586V47.0308H44.8586V46.0308ZM1.85864 50.0308H2.85864V51.0308H1.85864V50.0308ZM3.85864 58.0308V51.0308H4.85864V58.0308H3.85864ZM46.8586 62.0308H47.8586V63.0308H46.8586V62.0308Z" fill="white" fill-opacity="0.4"/>
<path d="M51.8586 1.03076H50.8586V2.03076H51.8586V1.03076Z" fill="white" fill-opacity="0.45"/>
<path d="M53.8586 1.03076H52.8586V2.03076H53.8586V1.03076Z" fill="white" fill-opacity="0.45"/>
<path d="M46.8586 4.03076H45.8586V5.03076H46.8586V4.03076Z" fill="white" fill-opacity="0.45"/>
<path d="M50.8586 4.03076V5.03076V6.03076V7.03076V9.03076V10.0308V13.0308V14.0308V15.0308V18.0308H51.8586V4.03076H50.8586Z" fill="white" fill-opacity="0.45"/>
<path d="M52.8586 4.03076V18.0308H53.8586V15.0308V14.0308V13.0308V11.0308V10.0308V9.03076V7.03076V6.03076V5.03076V4.03076H52.8586Z" fill="white" fill-opacity="0.45"/>
<path d="M58.8586 4.03076H57.8586V5.03076H58.8586V4.03076Z" fill="white" fill-opacity="0.45"/>
<path d="M46.8586 6.03076H45.8586V7.03076H46.8586V6.03076Z" fill="white" fill-opacity="0.45"/>
<path d="M58.8586 6.03076H57.8586V7.03076H58.8586V6.03076Z" fill="white" fill-opacity="0.45"/>
<path d="M18.8586 8.03076H17.8586V9.03076H18.8586V8.03076Z" fill="white" fill-opacity="0.45"/>
<path d="M47.8586 12.0308H46.8586V13.0308H47.8586V12.0308Z" fill="white" fill-opacity="0.45"/>
<path d="M57.8586 12.0308H56.8586V13.0308H57.8586V12.0308Z" fill="white" fill-opacity="0.45"/>
<path d="M48.8586 17.0308H47.8586V18.0308H48.8586V17.0308Z" fill="white" fill-opacity="0.45"/>
<path d="M56.8586 17.0308H55.8586V18.0308H56.8586V17.0308Z" fill="white" fill-opacity="0.45"/>
<path d="M29.8586 19.0308H28.8586V20.0308H29.8586V19.0308Z" fill="white" fill-opacity="0.45"/>
<path d="M36.8586 19.0308H35.8586V20.0308H36.8586V19.0308Z" fill="white" fill-opacity="0.45"/>
<path d="M48.8586 19.0308H47.8586V20.0308H48.8586V19.0308Z" fill="white" fill-opacity="0.45"/>
<path d="M56.8586 19.0308H55.8586V20.0308H56.8586V19.0308Z" fill="white" fill-opacity="0.45"/>
<path d="M24.8586 32.0308H23.8586V33.0308H24.8586V32.0308Z" fill="white" fill-opacity="0.45"/>
<path d="M4.85864 50.0308H3.85864V51.0308H4.85864V50.0308Z" fill="white" fill-opacity="0.45"/>
<path d="M1.85864 51.0308V58.0308H2.85864V51.0308H1.85864Z" fill="white" fill-opacity="0.45"/>
<path d="M46.8586 63.0308H45.8586V64.0308H46.8586V63.0308Z" fill="white" fill-opacity="0.45"/>
<path d="M47.8586 0.0307617H46.8586V1.03076H47.8586V0.0307617Z" fill="white" fill-opacity="0.53"/>
<path d="M57.8586 0.0307617H56.8586V1.03076H57.8586V0.0307617Z" fill="white" fill-opacity="0.53"/>
<path d="M48.8586 2.03076H47.8586V3.03076H48.8586V2.03076Z" fill="white" fill-opacity="0.53"/>
<path d="M56.8586 2.03076H55.8586V3.03076H56.8586V2.03076Z" fill="white" fill-opacity="0.53"/>
<path d="M45.8586 4.03076H44.8586V5.03076H45.8586V4.03076Z" fill="white" fill-opacity="0.53"/>
<path d="M59.8586 4.03076H58.8586V5.03076H59.8586V4.03076Z" fill="white" fill-opacity="0.53"/>
<path d="M18.8586 6.03076H17.8586V7.03076H18.8586V6.03076Z" fill="white" fill-opacity="0.53"/>
<path d="M31.8586 6.03076H30.8586V7.03076H31.8586V6.03076Z" fill="white" fill-opacity="0.53"/>
<path d="M31.8586 9.03076H30.8586V10.0308H31.8586V9.03076Z" fill="white" fill-opacity="0.53"/>
<path d="M48.8586 10.0308H47.8586V11.0308H48.8586V10.0308Z" fill="white" fill-opacity="0.53"/>
<path d="M56.8586 10.0308H55.8586V11.0308H56.8586V10.0308Z" fill="white" fill-opacity="0.53"/>
<path d="M27.8586 17.0308H26.8586V18.0308H27.8586V17.0308Z" fill="white" fill-opacity="0.53"/>
<path d="M29.8586 17.0308V18.0308H31.8586V17.0308H29.8586Z" fill="white" fill-opacity="0.53"/>
<path d="M36.8586 18.0308H35.8586V19.0308H36.8586V18.0308Z" fill="white" fill-opacity="0.53"/>
<path d="M28.8586 19.0308H27.8586V20.0308H28.8586V19.0308Z" fill="white" fill-opacity="0.53"/>
<path d="M18.8586 20.0308H17.8586V21.0308H18.8586V20.0308Z" fill="white" fill-opacity="0.53"/>
<path d="M52.8586 20.0308H51.8586V21.0308H52.8586V20.0308Z" fill="white" fill-opacity="0.53"/>
<path d="M32.8586 25.0308H31.8586V26.0308H32.8586V25.0308Z" fill="white" fill-opacity="0.53"/>
<path d="M35.8586 25.0308H34.8586V26.0308H35.8586V25.0308Z" fill="white" fill-opacity="0.53"/>
<path d="M15.8586 27.0308H14.8586V28.0308H15.8586V27.0308Z" fill="white" fill-opacity="0.53"/>
<path d="M17.8586 27.0308H16.8586V28.0308H17.8586V27.0308Z" fill="white" fill-opacity="0.53"/>
<path d="M25.8586 32.0308H24.8586V33.0308H25.8586V32.0308Z" fill="white" fill-opacity="0.53"/>
<path d="M30.8586 32.0308H29.8586V33.0308H30.8586V32.0308Z" fill="white" fill-opacity="0.53"/>
<path d="M8.85864 37.0308V38.0308H39.8586V37.0308H8.85864Z" fill="white" fill-opacity="0.53"/>
<path d="M44.8586 44.0308H43.8586V45.0308H44.8586V44.0308Z" fill="white" fill-opacity="0.53"/>
<path d="M3.85864 46.0308H2.85864V47.0308H3.85864V46.0308Z" fill="white" fill-opacity="0.53"/>
<path d="M43.8586 51.0308V58.0308H44.8586V51.0308H43.8586Z" fill="white" fill-opacity="0.53"/>
<path d="M46.8586 58.0308H45.8586V59.0308H46.8586V58.0308Z" fill="white" fill-opacity="0.53"/>
<path d="M1.85864 59.0308H0.858643V60.0308H1.85864V59.0308Z" fill="white" fill-opacity="0.53"/>
<path d="M0.858643 62.0308H1.85864V63.0308H2.85864V64.0308H1.85864V63.0308H0.858643V62.0308Z" fill="white" fill-opacity="0.53"/>
<path d="M57.8586 6.03076H56.8586V7.03076H57.8586V6.03076Z" fill="white" fill-opacity="0.58"/>
<path d="M47.8586 8.03076H46.8586V9.03076H47.8586V8.03076Z" fill="white" fill-opacity="0.58"/>
<path d="M57.8586 8.03076H56.8586V9.03076H57.8586V8.03076Z" fill="white" fill-opacity="0.58"/>
<path d="M61.8586 9.03076H60.8586V10.0308H61.8586V9.03076Z" fill="white" fill-opacity="0.58"/>
<path d="M49.8586 10.0308H48.8586V11.0308H49.8586V10.0308Z" fill="white" fill-opacity="0.58"/>
<path d="M13.8586 11.0308H12.8586V12.0308H13.8586V11.0308Z" fill="white" fill-opacity="0.58"/>
<path d="M35.8586 12.0308V18.0308H36.8586V12.0308H35.8586Z" fill="white" fill-opacity="0.58"/>
<path d="M19.8586 13.0308H18.8586V14.0308H19.8586V13.0308Z" fill="white" fill-opacity="0.58"/>
<path d="M16.8586 19.0308H15.8586V20.0308H16.8586V19.0308Z" fill="white" fill-opacity="0.58"/>
<path d="M32.8586 20.0308H31.8586V21.0308H32.8586V20.0308Z" fill="white" fill-opacity="0.58"/>
<path d="M35.8586 20.0308V24.0308H36.8586V20.0308H35.8586Z" fill="white" fill-opacity="0.58"/>
<path d="M12.8586 23.0308H11.8586V24.0308H12.8586V23.0308Z" fill="white" fill-opacity="0.58"/>
<path d="M18.8586 29.0308H17.8586V30.0308H18.8586V29.0308Z" fill="white" fill-opacity="0.58"/>
<path d="M32.8586 30.0308H31.8586V31.0308H32.8586V30.0308Z" fill="white" fill-opacity="0.58"/>
<path d="M23.8586 32.0308H22.8586V33.0308H23.8586V32.0308Z" fill="white" fill-opacity="0.58"/>
<path d="M7.85864 50.0308H6.85864V51.0308H7.85864V50.0308Z" fill="white" fill-opacity="0.58"/>
<path d="M44.8586 50.0308H43.8586V51.0308H44.8586V50.0308Z" fill="white" fill-opacity="0.58"/>
<path d="M44.8586 4.03076H43.8586V5.03076H44.8586V4.03076Z" fill="white" fill-opacity="0.64"/>
<path d="M60.8586 4.03076H59.8586V5.03076H60.8586V4.03076Z" fill="white" fill-opacity="0.64"/>
<path d="M47.8586 6.03076H46.8586V7.03076H47.8586V6.03076Z" fill="white" fill-opacity="0.64"/>
<path d="M55.8586 10.0308H54.8586V11.0308H55.8586V10.0308Z" fill="white" fill-opacity="0.64"/>
<path d="M46.8586 12.0308H45.8586V13.0308H46.8586V12.0308Z" fill="white" fill-opacity="0.64"/>
<path d="M20.8586 13.0308H19.8586V14.0308H20.8586V13.0308Z" fill="white" fill-opacity="0.64"/>
<path d="M48.8586 14.0308H47.8586V15.0308H48.8586V14.0308Z" fill="white" fill-opacity="0.64"/>
<path d="M56.8586 14.0308H55.8586V15.0308H56.8586V14.0308Z" fill="white" fill-opacity="0.64"/>
<path d="M47.8586 17.0308H46.8586V18.0308H47.8586V17.0308Z" fill="white" fill-opacity="0.64"/>
<path d="M57.8586 17.0308H56.8586V18.0308H57.8586V17.0308Z" fill="white" fill-opacity="0.64"/>
<path d="M31.8586 19.0308H30.8586V20.0308H31.8586V19.0308Z" fill="white" fill-opacity="0.64"/>
<path d="M12.8586 20.0308H11.8586V21.0308H12.8586V20.0308Z" fill="white" fill-opacity="0.64"/>
<path d="M32.8586 26.0308H31.8586V27.0308H32.8586V26.0308Z" fill="white" fill-opacity="0.64"/>
<path d="M20.8586 35.0308H19.8586V36.0308H20.8586V35.0308Z" fill="white" fill-opacity="0.64"/>
<path d="M4.85864 44.0308H3.85864V45.0308H4.85864V44.0308Z" fill="white" fill-opacity="0.64"/>
<path d="M4.85864 49.0308H3.85864V50.0308H4.85864V49.0308Z" fill="white" fill-opacity="0.64"/>
<path d="M2.85864 58.0308H1.85864V59.0308H2.85864V58.0308Z" fill="white" fill-opacity="0.64"/>
<path d="M46.8586 8.03076H45.8586V9.03076H46.8586V8.03076Z" fill="white" fill-opacity="0.68"/>
<path d="M33.8586 9.03076H32.8586V10.0308H33.8586V9.03076Z" fill="white" fill-opacity="0.68"/>
<path d="M49.8586 14.0308H48.8586V15.0308H49.8586V14.0308Z" fill="white" fill-opacity="0.68"/>
<path d="M55.8586 14.0308H54.8586V15.0308H55.8586V14.0308Z" fill="white" fill-opacity="0.68"/>
<path d="M41.8586 18.0308H40.8586V19.0308H41.8586V18.0308Z" fill="white" fill-opacity="0.68"/>
<path d="M63.8586 18.0308H62.8586V19.0308H63.8586V18.0308Z" fill="white" fill-opacity="0.68"/>
<path d="M11.8586 21.0308V23.0308H12.8586V21.0308H11.8586Z" fill="white" fill-opacity="0.68"/>
<path d="M33.8586 28.0308H32.8586V29.0308H33.8586V28.0308Z" fill="white" fill-opacity="0.68"/>
<path d="M16.8586 29.0308H15.8586V30.0308H16.8586V29.0308Z" fill="white" fill-opacity="0.68"/>
<path d="M31.8586 31.0308H30.8586V32.0308H31.8586V31.0308Z" fill="white" fill-opacity="0.68"/>
<path d="M26.8586 32.0308H25.8586V33.0308H26.8586V32.0308Z" fill="white" fill-opacity="0.68"/>
<path d="M8.85864 37.0308H7.85864V38.0308H8.85864V37.0308Z" fill="white" fill-opacity="0.68"/>
<path d="M42.8586 37.0308H41.8586V38.0308H42.8586V37.0308Z" fill="white" fill-opacity="0.68"/>
<path d="M6.85864 39.0308V50.0308H7.85864V39.0308H6.85864Z" fill="white" fill-opacity="0.68"/>
<path d="M5.85864 46.0308H4.85864V47.0308H5.85864V46.0308Z" fill="white" fill-opacity="0.68"/>
<path d="M43.8586 46.0308H42.8586V47.0308H43.8586V46.0308Z" fill="white" fill-opacity="0.68"/>
<path d="M45.8586 47.0308H44.8586V48.0308H45.8586V47.0308Z" fill="white" fill-opacity="0.68"/>
<path d="M6.85864 55.0308V58.0308H7.85864V55.0308H6.85864Z" fill="white" fill-opacity="0.68"/>
<path d="M46.8586 0.0307617H45.8586V1.03076H46.8586V0.0307617Z" fill="white" fill-opacity="0.75"/>
<path d="M58.8586 0.0307617H57.8586V1.03076H58.8586V0.0307617Z" fill="white" fill-opacity="0.75"/>
<path d="M41.8586 5.03076H40.8586V6.03076H41.8586V5.03076Z" fill="white" fill-opacity="0.75"/>
<path d="M19.8586 6.03076H18.8586V7.03076H19.8586V6.03076Z" fill="white" fill-opacity="0.75"/>
<path d="M32.8586 7.03076H31.8586V8.03076H32.8586V7.03076Z" fill="white" fill-opacity="0.75"/>
<path d="M58.8586 8.03076H57.8586V9.03076H58.8586V8.03076Z" fill="white" fill-opacity="0.75"/>
<path d="M45.8586 12.0308H44.8586V13.0308H45.8586V12.0308Z" fill="white" fill-opacity="0.75"/>
<path d="M43.8586 13.0308H42.8586V14.0308H43.8586V13.0308Z" fill="white" fill-opacity="0.75"/>
<path d="M23.8586 17.0308H22.8586V18.0308H23.8586V17.0308Z" fill="white" fill-opacity="0.75"/>
<path d="M55.8586 19.0308H54.8586V20.0308H55.8586V19.0308Z" fill="white" fill-opacity="0.75"/>
<path d="M20.8586 31.0308H19.8586V32.0308H20.8586V31.0308Z" fill="white" fill-opacity="0.75"/>
<path d="M28.8586 35.0308H27.8586V36.0308H28.8586V35.0308Z" fill="white" fill-opacity="0.75"/>
<path d="M40.8586 37.0308H39.8586V38.0308H40.8586V37.0308Z" fill="white" fill-opacity="0.75"/>
<path d="M44.8586 49.0308H43.8586V50.0308H44.8586V49.0308Z" fill="white" fill-opacity="0.75"/>
<path d="M49.8586 2.03076H48.8586V3.03076H49.8586V2.03076Z" fill="white" fill-opacity="0.79"/>
<path d="M55.8586 2.03076H54.8586V3.03076H55.8586V2.03076Z" fill="white" fill-opacity="0.79"/>
<path d="M49.8586 5.03076H48.8586V6.03076H49.8586V5.03076Z" fill="white" fill-opacity="0.79"/>
<path d="M61.8586 5.03076H60.8586V6.03076H61.8586V5.03076Z" fill="white" fill-opacity="0.79"/>
<path d="M16.8586 9.03076H15.8586V10.0308H16.8586V9.03076Z" fill="white" fill-opacity="0.79"/>
<path d="M41.8586 9.03076H40.8586V10.0308H41.8586V9.03076Z" fill="white" fill-opacity="0.79"/>
<path d="M34.8586 11.0308H33.8586V12.0308H34.8586V11.0308Z" fill="white" fill-opacity="0.79"/>
<path d="M17.8586 17.0308V20.0308H18.8586V17.0308H17.8586Z" fill="white" fill-opacity="0.79"/>
<path d="M26.8586 17.0308H25.8586V18.0308H26.8586V17.0308Z" fill="white" fill-opacity="0.79"/>
<path d="M64.8586 17.0308H63.8586V18.0308H64.8586V17.0308Z" fill="white" fill-opacity="0.79"/>
<path d="M42.8586 18.0308H41.8586V19.0308H42.8586V18.0308Z" fill="white" fill-opacity="0.79"/>
<path d="M51.8586 18.0308H50.8586V19.0308H51.8586V18.0308Z" fill="white" fill-opacity="0.79"/>
<path d="M53.8586 18.0308H52.8586V19.0308H53.8586V18.0308Z" fill="white" fill-opacity="0.79"/>
<path d="M62.8586 18.0308H61.8586V19.0308H62.8586V18.0308Z" fill="white" fill-opacity="0.79"/>
<path d="M49.8586 19.0308H48.8586V20.0308H49.8586V19.0308Z" fill="white" fill-opacity="0.79"/>
<path d="M15.8586 24.0308H14.8586V25.0308H15.8586V24.0308Z" fill="white" fill-opacity="0.79"/>
<path d="M33.8586 24.0308H32.8586V25.0308H33.8586V24.0308Z" fill="white" fill-opacity="0.79"/>
<path d="M20.8586 34.0308H19.8586V35.0308H20.8586V34.0308Z" fill="white" fill-opacity="0.79"/>
<path d="M30.8586 35.0308H29.8586V36.0308H30.8586V35.0308Z" fill="white" fill-opacity="0.79"/>
<path d="M41.8586 36.0308H40.8586V37.0308H41.8586V36.0308Z" fill="white" fill-opacity="0.79"/>
<path d="M7.85864 38.0308H6.85864V39.0308H7.85864V38.0308Z" fill="white" fill-opacity="0.79"/>
<path d="M40.8586 39.0308V58.0308H41.8586V39.0308H40.8586Z" fill="white" fill-opacity="0.79"/>
<path d="M46.8586 60.0308V62.0308H47.8586V60.0308H46.8586Z" fill="white" fill-opacity="0.79"/>
<path d="M45.8586 0.0307617H44.8586V1.03076H45.8586V0.0307617Z" fill="white" fill-opacity="0.83"/>
<path d="M59.8586 0.0307617H58.8586V1.03076H59.8586V0.0307617Z" fill="white" fill-opacity="0.83"/>
<path d="M50.8586 1.03076H49.8586V2.03076H50.8586V1.03076Z" fill="white" fill-opacity="0.83"/>
<path d="M54.8586 1.03076H53.8586V2.03076H54.8586V1.03076Z" fill="white" fill-opacity="0.83"/>
<path d="M43.8586 5.03076H42.8586V6.03076H43.8586V5.03076Z" fill="white" fill-opacity="0.83"/>
<path d="M54.8586 5.03076H55.8586V6.03076H56.8586V7.03076H55.8586V6.03076H54.8586V5.03076Z" fill="white" fill-opacity="0.83"/>
<path d="M30.8586 6.03076H29.8586V7.03076H30.8586V6.03076Z" fill="white" fill-opacity="0.83"/>
<path d="M48.8586 6.03076H47.8586V7.03076H48.8586V6.03076Z" fill="white" fill-opacity="0.83"/>
<path d="M31.8586 8.03076H30.8586V9.03076H31.8586V8.03076Z" fill="white" fill-opacity="0.83"/>
<path d="M45.8586 8.03076H44.8586V9.03076H45.8586V8.03076Z" fill="white" fill-opacity="0.83"/>
<path d="M59.8586 8.03076H58.8586V9.03076H59.8586V8.03076Z" fill="white" fill-opacity="0.83"/>
<path d="M44.8586 12.0308H43.8586V13.0308H44.8586V12.0308Z" fill="white" fill-opacity="0.83"/>
<path d="M13.8586 14.0308V18.0308H14.8586V14.0308H13.8586Z" fill="white" fill-opacity="0.83"/>
<path d="M18.8586 16.0308H17.8586V17.0308H18.8586V16.0308Z" fill="white" fill-opacity="0.83"/>
<path d="M24.8586 16.0308H23.8586V17.0308H24.8586V16.0308Z" fill="white" fill-opacity="0.83"/>
<path d="M40.8586 17.0308H39.8586V18.0308H40.8586V17.0308Z" fill="white" fill-opacity="0.83"/>
<path d="M46.8586 17.0308H45.8586V18.0308H46.8586V17.0308Z" fill="white" fill-opacity="0.83"/>
<path d="M58.8586 17.0308H57.8586V18.0308H58.8586V17.0308Z" fill="white" fill-opacity="0.83"/>
<path d="M43.8586 18.0308H42.8586V19.0308H43.8586V18.0308Z" fill="white" fill-opacity="0.83"/>
<path d="M61.8586 18.0308H60.8586V19.0308H61.8586V18.0308Z" fill="white" fill-opacity="0.83"/>
<path d="M30.8586 30.0308H29.8586V31.0308H30.8586V30.0308Z" fill="white" fill-opacity="0.83"/>
<path d="M21.8586 32.0308H22.8586V33.0308H21.8586V34.0308H20.8586V33.0308H21.8586V32.0308Z" fill="white" fill-opacity="0.83"/>
<path d="M6.85864 37.0308H5.85864V38.0308H6.85864V37.0308Z" fill="white" fill-opacity="0.83"/>
<path d="M2.85864 47.0308H3.85864V48.0308H4.85864V49.0308H3.85864V48.0308H2.85864V47.0308Z" fill="white" fill-opacity="0.83"/>
<path d="M44.8586 0.0307617H43.8586V1.03076H44.8586V0.0307617Z" fill="white" fill-opacity="0.87"/>
<path d="M60.8586 0.0307617H59.8586V1.03076H60.8586V0.0307617Z" fill="white" fill-opacity="0.87"/>
<path d="M41.8586 1.03076H42.8586V2.03076H41.8586V5.03076H40.8586V2.03076H41.8586V1.03076Z" fill="white" fill-opacity="0.87"/>
<path d="M62.8586 1.03076H61.8586V2.03076H62.8586V1.03076Z" fill="white" fill-opacity="0.87"/>
<path d="M19.8586 6.03076V7.03076H29.8586V6.03076H19.8586Z" fill="white" fill-opacity="0.87"/>
<path d="M15.8586 10.0308H14.8586V11.0308H15.8586V10.0308Z" fill="white" fill-opacity="0.87"/>
<path d="M40.8586 10.0308V17.0308H41.8586V16.0308V10.0308H40.8586Z" fill="white" fill-opacity="0.87"/>
<path d="M13.8586 12.0308H12.8586V13.0308H13.8586V12.0308Z" fill="white" fill-opacity="0.87"/>
<path d="M25.8586 18.0308H24.8586V19.0308H25.8586V18.0308Z" fill="white" fill-opacity="0.87"/>
<path d="M32.8586 18.0308H31.8586V19.0308H32.8586V18.0308Z" fill="white" fill-opacity="0.87"/>
<path d="M50.8586 18.0308H49.8586V19.0308H50.8586V18.0308Z" fill="white" fill-opacity="0.87"/>
<path d="M54.8586 18.0308H53.8586V19.0308H54.8586V18.0308Z" fill="white" fill-opacity="0.87"/>
<path d="M15.8586 19.0308H14.8586V20.0308H15.8586V19.0308Z" fill="white" fill-opacity="0.87"/>
<path d="M17.8586 28.0308H16.8586V29.0308H17.8586V28.0308Z" fill="white" fill-opacity="0.87"/>
<path d="M18.8586 35.0308H17.8586V36.0308H18.8586V35.0308Z" fill="white" fill-opacity="0.87"/>
<path d="M7.85864 36.0308H6.85864V37.0308H7.85864V36.0308Z" fill="white" fill-opacity="0.87"/>
<path d="M43.8586 43.0308H42.8586V44.0308H43.8586V43.0308Z" fill="white" fill-opacity="0.87"/>
<path d="M7.85864 58.0308V59.0308H40.8586V58.0308H7.85864Z" fill="white" fill-opacity="0.87"/>
<path d="M43.8586 58.0308H42.8586V59.0308H43.8586V58.0308Z" fill="white" fill-opacity="0.87"/>
<path d="M3.85864 63.0308V62.0308H44.8586V63.0308H45.8586V64.0308H44.8586V63.0308H3.85864Z" fill="white" fill-opacity="0.87"/>
<path fill-rule="evenodd" clip-rule="evenodd" d="M40.8586 0.0307617H41.8586V1.03076H40.8586V0.0307617ZM42.8586 1.03076V0.0307617H43.8586V1.03076V2.03076H42.8586V1.03076ZM60.8586 1.03076V0.0307617H61.8586V1.03076V2.03076H60.8586V1.03076ZM62.8586 0.0307617H63.8586V1.03076H62.8586V0.0307617ZM39.8586 1.03076H40.8586V2.03076H39.8586V1.03076ZM63.8586 1.03076H64.8586V2.03076H63.8586V1.03076ZM62.8586 16.0308V2.03076H63.8586V17.0308H62.8586V16.0308ZM39.8586 5.03076H40.8586V6.03076H39.8586V5.03076ZM48.8586 6.03076H49.8586V7.03076H48.8586V6.03076ZM54.8586 6.03076H55.8586V7.03076H54.8586V6.03076ZM16.8586 8.03076H17.8586V9.03076H16.8586V8.03076ZM43.8586 8.03076H44.8586V9.03076H43.8586V8.03076ZM59.8586 8.03076H60.8586V9.03076H59.8586V8.03076ZM39.8586 9.03076H40.8586V10.0308H39.8586V9.03076ZM31.8586 10.0308H32.8586V11.0308H31.8586V10.0308ZM13.8586 13.0308H14.8586V14.0308H13.8586V13.0308ZM57.8586 13.0308H58.8586V14.0308H57.8586V13.0308ZM16.8586 15.0308H17.8586V16.0308H16.8586V15.0308ZM20.8586 15.0308H21.8586V16.0308H20.8586V15.0308ZM21.8586 16.0308H22.8586V17.0308H21.8586V16.0308ZM44.8586 17.0308H45.8586V18.0308H44.8586V17.0308ZM58.8586 17.0308H59.8586V18.0308H58.8586V17.0308ZM13.8586 18.0308H14.8586V19.0308H13.8586V18.0308ZM43.8586 18.0308H44.8586V19.0308H43.8586V18.0308ZM59.8586 18.0308H60.8586V19.0308H59.8586V18.0308ZM32.8586 21.0308V20.0308H34.8586V21.0308H33.8586H32.8586ZM13.8586 25.0308H14.8586V26.0308H13.8586V25.0308ZM31.8586 27.0308H32.8586V28.0308H31.8586V27.0308ZM30.8586 29.0308H31.8586V30.0308H30.8586V29.0308ZM16.8586 30.0308H17.8586V31.0308H16.8586V30.0308ZM28.8586 31.0308H29.8586V32.0308H28.8586V31.0308ZM26.8586 32.0308H27.8586V33.0308H26.8586V32.0308ZM27.8586 34.0308H28.8586V35.0308H27.8586V34.0308ZM40.8586 38.0308H41.8586V39.0308H40.8586V38.0308ZM4.85864 43.0308H5.85864V44.0308H4.85864V43.0308ZM43.8586 45.0308H44.8586V46.0308H43.8586V45.0308ZM43.8586 49.0308V48.0308H44.8586H45.8586V49.0308H44.8586H43.8586ZM5.85864 58.0308H3.85864H4.85864H5.85864ZM43.8586 58.0308H44.8586V59.0308H43.8586V58.0308ZM0.858643 62.0308V60.0308H1.85864V62.0308H0.858643ZM2.85864 63.0308H3.85864V64.0308H2.85864V63.0308Z" fill="white" fill-opacity="0.91"/>
<path d="M41.8586 0.0307617H42.8586V1.03076H41.8586V2.03076H40.8586V1.03076H41.8586V0.0307617Z" fill="white" fill-opacity="0.98"/>
<path d="M61.8586 0.0307617H62.8586V1.03076H63.8586V2.03076H64.8586V17.0308H63.8586V2.03076H62.8586V1.03076H61.8586V0.0307617Z" fill="white" fill-opacity="0.98"/>
<path d="M44.8586 1.03076H43.8586V2.03076H44.8586V1.03076Z" fill="white" fill-opacity="0.98"/>
<path d="M60.8586 1.03076H59.8586V2.03076H60.8586V1.03076Z" fill="white" fill-opacity="0.98"/>
<path d="M17.8586 7.03076H16.8586V8.03076H17.8586V7.03076Z" fill="white" fill-opacity="0.98"/>
<path d="M44.8586 9.03076H43.8586V10.0308H44.8586V9.03076Z" fill="white" fill-opacity="0.98"/>
<path d="M49.8586 9.03076H48.8586V10.0308H49.8586V9.03076Z" fill="white" fill-opacity="0.98"/>
<path d="M55.8586 9.03076H54.8586V10.0308H55.8586V9.03076Z" fill="white" fill-opacity="0.98"/>
<path d="M60.8586 9.03076H59.8586V10.0308H60.8586V9.03076Z" fill="white" fill-opacity="0.98"/>
<path d="M13.8586 12.0308H14.8586V13.0308H13.8586V14.0308H12.8586V13.0308H13.8586V12.0308Z" fill="white" fill-opacity="0.98"/>
<path d="M49.8586 13.0308H48.8586V14.0308H49.8586V13.0308Z" fill="white" fill-opacity="0.98"/>
<path d="M55.8586 13.0308H54.8586V14.0308H55.8586V13.0308Z" fill="white" fill-opacity="0.98"/>
<path d="M43.8586 17.0308H44.8586V18.0308H45.8586V19.0308H44.8586V18.0308H43.8586V17.0308Z" fill="white" fill-opacity="0.98"/>
<path d="M59.8586 18.0308H58.8586V19.0308H59.8586V18.0308Z" fill="white" fill-opacity="0.98"/>
<path d="M32.8586 19.0308V20.0308H34.8586V19.0308H33.8586H32.8586Z" fill="white" fill-opacity="0.98"/>
<path d="M15.8586 20.0308H14.8586V21.0308H15.8586V20.0308Z" fill="white" fill-opacity="0.98"/>
<path d="M14.8586 24.0308H13.8586V25.0308H14.8586V24.0308Z" fill="white" fill-opacity="0.98"/>
<path d="M33.8586 24.0308V25.0308V26.0308H34.8586V25.0308V24.0308H33.8586Z" fill="white" fill-opacity="0.98"/>
<path d="M33.8586 27.0308H32.8586V28.0308H33.8586V27.0308Z" fill="white" fill-opacity="0.98"/>
<path d="M17.8586 31.0308H18.8586V32.0308H19.8586L20.8586 33.0308V34.0308H19.8586H18.8586V33.0308V32.0308H17.8586V31.0308Z" fill="white" fill-opacity="0.98"/>
<path d="M27.8586 33.0308H26.8586V34.0308H27.8586V33.0308Z" fill="white" fill-opacity="0.98"/>
<path d="M29.8586 34.0308H28.8586V35.0308H29.8586V34.0308Z" fill="white" fill-opacity="0.98"/>
<path d="M42.8586 38.0308H41.8586V39.0308H42.8586V38.0308Z" fill="white" fill-opacity="0.98"/>
<path d="M3.85864 45.0308V46.0308H4.85864H5.85864L4.85864 45.0308H3.85864Z" fill="white" fill-opacity="0.98"/>
<path d="M6.85864 54.0308H5.85864V55.0308H6.85864V54.0308Z" fill="white" fill-opacity="0.98"/>
<path d="M7.85864 58.0308H6.85864V59.0308H7.85864V58.0308Z" fill="white" fill-opacity="0.98"/>
<path d="M41.8586 58.0308H40.8586V59.0308H41.8586V58.0308Z" fill="white" fill-opacity="0.98"/>
<path d="M1.85864 62.0308V60.0308H2.85864V61.0308V62.0308H3.85864V63.0308H2.85864V62.0308H1.85864Z" fill="white" fill-opacity="0.98"/>
<path d="M45.8586 62.0308H44.8586V63.0308H45.8586V62.0308Z" fill="white" fill-opacity="0.98"/>
<path fill-rule="evenodd" clip-rule="evenodd" d="M44.8586 2.03076V1.03076H45.8586H46.8586H47.8586H48.8586H49.8586V2.03076H48.8586H47.8586H46.8586H45.8586H44.8586ZM54.8586 2.03076V1.03076H55.8586H56.8586H57.8586H58.8586H59.8586V2.03076H58.8586H57.8586H56.8586H55.8586H54.8586ZM39.8586 5.03076V2.03076H40.8586V5.03076H39.8586ZM49.8586 3.03076V2.03076H50.8586H51.8586H52.8586H53.8586H54.8586V3.03076H53.8586L52.8586 4.03076V18.0308L53.8586 19.0308H54.8586V20.0308H53.8586H52.8586H51.8586H50.8586H49.8586V19.0308H50.8586L51.8586 18.0308V4.03076L50.8586 3.03076H49.8586ZM43.8586 6.03076V5.03076H44.8586H45.8586H46.8586H47.8586H48.8586V6.03076H47.8586H46.8586H45.8586H44.8586H43.8586ZM55.8586 6.03076V5.03076H56.8586H57.8586H58.8586H59.8586H60.8586V6.03076H59.8586H58.8586H57.8586H56.8586H55.8586ZM17.8586 8.03076V7.03076H18.8586H19.8586H29.8586H30.8586H31.8586V8.03076H30.8586H29.8586H19.8586H18.8586H17.8586ZM15.8586 8.03076H16.8586V9.03076H15.8586V8.03076ZM31.8586 9.03076V8.03076H32.8586V9.03076V10.0308H31.8586V9.03076ZM14.8586 9.03076H15.8586V10.0308H14.8586V9.03076ZM44.8586 10.0308V9.03076H45.8586H46.8586H47.8586H48.8586V10.0308H47.8586H46.8586H45.8586H44.8586ZM55.8586 10.0308V9.03076H56.8586H57.8586H58.8586H59.8586V10.0308H58.8586H57.8586H56.8586H55.8586ZM13.8586 11.0308V10.0308H14.8586V11.0308V12.0308H13.8586V11.0308ZM32.8586 11.0308V10.0308H33.8586H34.8586V11.0308H33.8586H32.8586ZM39.8586 17.0308V10.0308H40.8586V17.0308H39.8586ZM34.8586 12.0308V11.0308H35.8586V12.0308V18.0308V19.0308V20.0308V24.0308V25.0308H34.8586V24.0308V23.0308V21.0308V20.0308V19.0308V18.0308V13.0308V12.0308ZM43.8586 14.0308V13.0308H44.8586H45.8586H46.8586H47.8586H48.8586V14.0308H47.8586H46.8586H45.8586H44.8586H43.8586ZM55.8586 14.0308V13.0308H56.8586H57.8586V14.0308H56.8586H55.8586ZM12.8586 19.0308V14.0308H13.8586V18.0308L14.8586 19.0308V20.0308L13.8586 21.0308V23.0308V24.0308V25.0308H12.8586V24.0308V23.0308V21.0308V20.0308V19.0308ZM17.8586 15.0308V14.0308H18.8586H19.8586H20.8586H21.8586V15.0308H20.8586L18.8586 16.0308H17.8586V15.0308ZM21.8586 15.0308H22.8586V16.0308H21.8586V15.0308ZM16.8586 17.0308V16.0308H17.8586V17.0308V20.0308V21.0308H16.8586H15.8586V20.0308L16.8586 19.0308V17.0308ZM22.8586 16.0308H23.8586V17.0308H22.8586V16.0308ZM23.8586 18.0308V17.0308H24.8586H25.8586V18.0308H24.8586H23.8586ZM40.8586 18.0308V17.0308H41.8586H43.8586V18.0308H42.8586H41.8586H40.8586ZM59.8586 18.0308V17.0308H60.8586H62.8586H63.8586V18.0308H62.8586H61.8586H60.8586H59.8586ZM25.8586 19.0308V18.0308H26.8586H27.8586H29.8586H31.8586V19.0308H30.8586H29.8586H28.8586H27.8586H26.8586H25.8586ZM45.8586 19.0308V18.0308H46.8586H47.8586H48.8586H49.8586V19.0308H48.8586H47.8586H46.8586H45.8586ZM54.8586 19.0308V18.0308H55.8586H56.8586H57.8586H58.8586V19.0308H57.8586H56.8586H55.8586H54.8586ZM31.8586 19.0308H32.8586V20.0308H31.8586V19.0308ZM14.8586 26.0308V25.0308H15.8586H16.8586V26.0308V27.0308V28.0308V29.0308H15.8586V28.0308V27.0308L14.8586 26.0308ZM32.8586 26.0308V25.0308H33.8586V26.0308V27.0308H32.8586V26.0308ZM31.8586 29.0308V28.0308H32.8586V29.0308V30.0308H31.8586V29.0308ZM16.8586 29.0308H17.8586V30.0308H16.8586V29.0308ZM17.8586 30.0308H18.8586V31.0308H17.8586V30.0308ZM30.8586 30.0308H31.8586V31.0308H30.8586V30.0308ZM18.8586 31.0308H19.8586V32.0308H18.8586V31.0308ZM29.8586 31.0308H30.8586V32.0308H29.8586V31.0308ZM20.8586 33.0308L19.8586 32.0308H20.8586H21.8586V33.0308H20.8586ZM27.8586 33.0308V32.0308H28.8586H29.8586V33.0308L28.8586 34.0308H27.8586V33.0308ZM21.8586 34.0308V33.0308H22.8586H23.8586H24.8586H25.8586H26.8586V34.0308H25.8586H23.8586H22.8586H21.8586ZM18.8586 35.0308V34.0308H19.8586V35.0308L20.8586 36.0308H27.8586L28.8586 35.0308H29.8586L30.8586 36.0308H39.8586H40.8586V37.0308H39.8586H8.85864H7.85864V36.0308H8.85864H17.8586L18.8586 35.0308ZM6.85864 37.0308H7.85864V38.0308H6.85864V37.0308ZM40.8586 37.0308H41.8586V38.0308H40.8586V37.0308ZM5.85864 39.0308V38.0308H6.85864V39.0308V50.0308V51.0308H5.85864V50.0308V48.0308V47.0308V46.0308L4.85864 45.0308V44.0308L5.85864 43.0308V42.0308V39.0308ZM41.8586 58.0308V39.0308H42.8586V42.0308V43.0308L43.8586 44.0308V45.0308L42.8586 46.0308V47.0308V48.0308V58.0308L43.8586 59.0308L44.8586 58.0308V51.0308V50.0308V49.0308H45.8586V50.0308V51.0308V58.0308L46.8586 59.0308V60.0308V62.0308V63.0308H45.8586V62.0308V61.0308L44.8586 60.0308H3.85864H2.85864H1.85864V59.0308L2.85864 58.0308V51.0308V50.0308V49.0308V48.0308H3.85864V49.0308V50.0308V51.0308V58.0308H5.85864V55.0308H6.85864V58.0308L7.85864 59.0308H40.8586L41.8586 58.0308ZM3.85864 47.0308V46.0308H4.85864V47.0308V48.0308H3.85864V47.0308ZM43.8586 47.0308V46.0308H44.8586V47.0308V48.0308H43.8586V47.0308ZM1.85864 62.0308H2.85864V63.0308H1.85864V62.0308ZM3.85864 64.0308V63.0308H44.8586V64.0308H3.85864Z" fill="#D9D9D9"/>
<path d="M48.8586 4.03076H47.8586V5.03076H48.8586V4.03076Z" fill="white" fill-opacity="0.06"/>
<path d="M32.8586 6.03076H31.8586V7.03076H32.8586V6.03076Z" fill="white" fill-opacity="0.06"/>
<path d="M49.8586 12.0308H48.8586V13.0308H49.8586V12.0308Z" fill="white" fill-opacity="0.06"/>
<path d="M55.8586 12.0308H54.8586V13.0308H55.8586V12.0308Z" fill="white" fill-opacity="0.06"/>
<path d="M16.8586 16.0308H15.8586V17.0308H16.8586V16.0308Z" fill="white" fill-opacity="0.06"/>
<path d="M17.8586 25.0308H16.8586V26.0308H17.8586V25.0308Z" fill="white" fill-opacity="0.06"/>
<path d="M18.8586 28.0308H17.8586V29.0308H18.8586V28.0308Z" fill="white" fill-opacity="0.06"/>
<path d="M44.8586 43.0308H43.8586V44.0308H44.8586V43.0308Z" fill="white" fill-opacity="0.06"/>
<path d="M45.8586 45.0308H44.8586V46.0308H45.8586V45.0308Z" fill="white" fill-opacity="0.06"/>
<path d="M19.8586 50.0308H18.8586V51.0308H19.8586V50.0308Z" fill="white" fill-opacity="0.06"/>
<path d="M22.8586 53.0308H21.8586V54.0308H22.8586V53.0308Z" fill="white" fill-opacity="0.06"/>
<path d="M26.8586 53.0308H25.8586V54.0308H26.8586V53.0308Z" fill="white" fill-opacity="0.06"/>
<path d="M56.8586 4.03076H55.8586V5.03076H56.8586V4.03076Z" fill="white" fill-opacity="0.09"/>
<path d="M30.8586 29.0308H29.8586V30.0308H30.8586V29.0308Z" fill="white" fill-opacity="0.09"/>
<path d="M30.8586 34.0308H29.8586V35.0308H30.8586V34.0308Z" fill="white" fill-opacity="0.09"/>
<path d="M42.8586 36.0308H41.8586V37.0308H42.8586V36.0308Z" fill="white" fill-opacity="0.09"/>
<path d="M4.85864 43.0308H3.85864V44.0308H4.85864V43.0308Z" fill="white" fill-opacity="0.09"/>
<path d="M3.85864 45.0308H2.85864V46.0308H3.85864V45.0308Z" fill="white" fill-opacity="0.09"/>
<path d="M2.85864 48.0308H1.85864V49.0308H2.85864V48.0308Z" fill="white" fill-opacity="0.09"/>
<path d="M6.85864 53.0308H5.85864V54.0308H6.85864V53.0308Z" fill="white" fill-opacity="0.09"/>
<path d="M17.8586 6.03076H16.8586V7.03076H17.8586V6.03076Z" fill="white" fill-opacity="0.14"/>
<path d="M33.8586 8.03076H32.8586V9.03076H33.8586V8.03076Z" fill="white" fill-opacity="0.14"/>
<path d="M49.8586 8.03076H48.8586V9.03076H49.8586V8.03076Z" fill="white" fill-opacity="0.14"/>
<path d="M55.8586 8.03076H54.8586V9.03076H55.8586V8.03076Z" fill="white" fill-opacity="0.14"/>
<path d="M32.8586 17.0308H31.8586V18.0308H32.8586V17.0308Z" fill="white" fill-opacity="0.14"/>
<path d="M29.8586 30.0308H28.8586V31.0308H29.8586V30.0308Z" fill="white" fill-opacity="0.14"/>
<path d="M5.85864 38.0308H4.85864V39.0308H5.85864V38.0308Z" fill="white" fill-opacity="0.14"/>
<path d="M23.8586 43.0308H22.8586V44.0308H23.8586V43.0308Z" fill="white" fill-opacity="0.14"/>
<path d="M25.8586 43.0308H24.8586V44.0308H25.8586V43.0308Z" fill="white" fill-opacity="0.14"/>
<path d="M29.8586 47.0308H28.8586V48.0308H29.8586V47.0308Z" fill="white" fill-opacity="0.14"/>
<path d="M46.8586 49.0308H45.8586V50.0308H46.8586V49.0308Z" fill="white" fill-opacity="0.14"/>
<path d="M6.85864 51.0308H5.85864V52.0308H6.85864V51.0308Z" fill="white" fill-opacity="0.14"/>
<path d="M13.8586 10.0308H12.8586V11.0308H13.8586V10.0308Z" fill="white" fill-opacity="0.2"/>
<path d="M25.8586 16.0308H24.8586V17.0308H25.8586V16.0308Z" fill="white" fill-opacity="0.2"/>
<path d="M49.8586 17.0308H48.8586V18.0308H49.8586V17.0308Z" fill="white" fill-opacity="0.2"/>
<path d="M55.8586 17.0308H54.8586V18.0308H55.8586V17.0308Z" fill="white" fill-opacity="0.2"/>
<path d="M32.8586 24.0308H31.8586V25.0308H32.8586V24.0308Z" fill="white" fill-opacity="0.2"/>
<path d="M21.8586 31.0308H20.8586V32.0308H21.8586V31.0308Z" fill="white" fill-opacity="0.2"/>
<path d="M18.8586 34.0308H17.8586V35.0308H18.8586V34.0308Z" fill="white" fill-opacity="0.2"/>
<path d="M40.8586 35.0308H39.8586V36.0308H40.8586V35.0308Z" fill="white" fill-opacity="0.2"/>
<path d="M6.85864 36.0308H5.85864V37.0308H6.85864V36.0308Z" fill="white" fill-opacity="0.2"/>
<path d="M26.8586 44.0308H27.8586V45.0308H28.8586V46.0308H27.8586V45.0308H26.8586V44.0308Z" fill="white" fill-opacity="0.2"/>
<path d="M29.8586 49.0308H28.8586V50.0308H29.8586V49.0308Z" fill="white" fill-opacity="0.2"/>
<path d="M18.8586 13.0308H17.8586V14.0308H18.8586V13.0308Z" fill="#FFF5F5" fill-opacity="0.27"/>
<path d="M21.8586 13.0308H20.8586V14.0308H21.8586V13.0308Z" fill="#FFF5F5" fill-opacity="0.27"/>
<path d="M8.85864 35.0308H7.85864V36.0308H8.85864V35.0308Z" fill="#FFF5F5" fill-opacity="0.27"/>
<path d="M24.8586 43.0308H23.8586V44.0308H24.8586V43.0308Z" fill="#FFF5F5" fill-opacity="0.27"/>
<path d="M20.8586 44.0308H21.8586V45.0308H20.8586V46.0308H19.8586V45.0308H20.8586V44.0308Z" fill="#FFF5F5" fill-opacity="0.27"/>
<path d="M19.8586 47.0308H18.8586V48.0308H19.8586V47.0308Z" fill="#FFF5F5" fill-opacity="0.27"/>
<path d="M29.8586 48.0308H28.8586V49.0308H29.8586V48.0308Z" fill="#FFF5F5" fill-opacity="0.27"/>
<path d="M28.8586 51.0308H27.8586V52.0308H28.8586V51.0308Z" fill="#FFF5F5" fill-opacity="0.27"/>
<path d="M45.8586 60.0308H44.8586V61.0308H45.8586V60.0308Z" fill="#FFF5F5" fill-opacity="0.27"/>
<path d="M34.8586 9.03076H33.8586V10.0308H34.8586V9.03076Z" fill="#FFFBFB" fill-opacity="0.34"/>
<path d="M36.8586 11.0308H35.8586V12.0308H36.8586V11.0308Z" fill="#FFFBFB" fill-opacity="0.34"/>
<path d="M58.8586 12.0308H57.8586V13.0308H58.8586V12.0308Z" fill="#FFFBFB" fill-opacity="0.34"/>
<path d="M12.8586 19.0308H11.8586V20.0308H12.8586V19.0308Z" fill="#FFFBFB" fill-opacity="0.34"/>
<path d="M31.8586 28.0308H30.8586V29.0308H31.8586V28.0308Z" fill="#FFFBFB" fill-opacity="0.34"/>
<path d="M19.8586 49.0308H18.8586V50.0308H19.8586V49.0308Z" fill="#FFFBFB" fill-opacity="0.34"/>
<path d="M27.8586 52.0308H26.8586V53.0308H27.8586V52.0308Z" fill="#FFFBFB" fill-opacity="0.34"/>
<path d="M23.8586 53.0308H22.8586V54.0308H23.8586V53.0308Z" fill="#FFFBFB" fill-opacity="0.34"/>
<path d="M25.8586 53.0308H24.8586V54.0308H25.8586V53.0308Z" fill="#FFFBFB" fill-opacity="0.34"/>
<path d="M43.8586 4.03076H42.8586V5.03076H43.8586V4.03076Z" fill="white" fill-opacity="0.4"/>
<path d="M61.8586 4.03076H60.8586V5.03076H61.8586V4.03076Z" fill="white" fill-opacity="0.4"/>
<path d="M17.8586 14.0308H16.8586V15.0308H17.8586V14.0308Z" fill="white" fill-opacity="0.4"/>
<path d="M22.8586 46.0308H21.8586V47.0308H22.8586V46.0308Z" fill="white" fill-opacity="0.4"/>
<path d="M19.8586 48.0308H18.8586V49.0308H19.8586V48.0308Z" fill="white" fill-opacity="0.4"/>
<path d="M19.8586 51.0308H20.8586V52.0308H21.8586V53.0308H20.8586V52.0308H19.8586V51.0308Z" fill="white" fill-opacity="0.4"/>
<path d="M47.8586 59.0308H46.8586V60.0308H47.8586V59.0308Z" fill="white" fill-opacity="0.4"/>
<path d="M28.8586 31.0308H27.8586V32.0308H28.8586V31.0308Z" fill="white" fill-opacity="0.45"/>
<path d="M24.8586 51.0308H23.8586V52.0308H24.8586V51.0308Z" fill="white" fill-opacity="0.45"/>
<path d="M24.8586 53.0308H23.8586V54.0308H24.8586V53.0308Z" fill="white" fill-opacity="0.45"/>
<path d="M22.8586 14.0308H21.8586V15.0308H22.8586V14.0308Z" fill="white" fill-opacity="0.53"/>
<path d="M16.8586 24.0308H15.8586V25.0308H16.8586V24.0308Z" fill="white" fill-opacity="0.53"/>
<path d="M19.8586 30.0308H18.8586V31.0308H19.8586V30.0308Z" fill="white" fill-opacity="0.53"/>
<path d="M26.8586 46.0308H25.8586V47.0308H26.8586V46.0308Z" fill="white" fill-opacity="0.53"/>
<path d="M21.8586 48.0308H20.8586V49.0308H21.8586V48.0308Z" fill="white" fill-opacity="0.53"/>
<path d="M16.8586 7.03076H15.8586V8.03076H16.8586V7.03076Z" fill="white" fill-opacity="0.58"/>
<path d="M43.8586 12.0308H42.8586V13.0308H43.8586V12.0308Z" fill="white" fill-opacity="0.58"/>
<path d="M23.8586 15.0308H22.8586V16.0308H23.8586V15.0308Z" fill="white" fill-opacity="0.58"/>
<path d="M7.85864 54.0308H6.85864V55.0308H7.85864V54.0308Z" fill="white" fill-opacity="0.58"/>
<path d="M61.8586 8.03076H60.8586V9.03076H61.8586V8.03076Z" fill="white" fill-opacity="0.64"/>
<path d="M14.8586 9.03076H13.8586V10.0308H14.8586V9.03076Z" fill="white" fill-opacity="0.64"/>
<path d="M24.8586 45.0308H23.8586V46.0308H24.8586V45.0308Z" fill="white" fill-opacity="0.64"/>
<path d="M27.8586 48.0308H26.8586V49.0308H27.8586V48.0308Z" fill="white" fill-opacity="0.64"/>
<path d="M21.8586 49.0308H20.8586V50.0308H21.8586V49.0308Z" fill="white" fill-opacity="0.64"/>
<path d="M23.8586 51.0308H22.8586V52.0308H23.8586V51.0308Z" fill="white" fill-opacity="0.64"/>
<path d="M25.8586 51.0308H24.8586V52.0308H25.8586V51.0308Z" fill="white" fill-opacity="0.68"/>
<path d="M51.8586 3.03076H50.8586V4.03076H51.8586V3.03076Z" fill="white" fill-opacity="0.75"/>
<path d="M53.8586 3.03076H52.8586V4.03076H53.8586V3.03076Z" fill="white" fill-opacity="0.75"/>
<path d="M15.8586 8.03076H14.8586V9.03076H15.8586V8.03076Z" fill="white" fill-opacity="0.75"/>
<path d="M35.8586 10.0308H34.8586V11.0308H35.8586V10.0308Z" fill="white" fill-opacity="0.75"/>
<path d="M15.8586 26.0308H14.8586V27.0308H15.8586V26.0308Z" fill="white" fill-opacity="0.75"/>
<path d="M21.8586 47.0308H20.8586V48.0308H21.8586V47.0308Z" fill="white" fill-opacity="0.75"/>
<path d="M14.8586 20.0308H13.8586V21.0308H14.8586V20.0308Z" fill="white" fill-opacity="0.79"/>
<path d="M26.8586 44.0308H25.8586V45.0308H26.8586V44.0308Z" fill="white" fill-opacity="0.79"/>
<path d="M28.8586 46.0308H27.8586V47.0308H28.8586V46.0308Z" fill="white" fill-opacity="0.79"/>
<path d="M27.8586 49.0308H26.8586V50.0308H27.8586V49.0308Z" fill="white" fill-opacity="0.79"/>
<path d="M29.8586 33.0308H28.8586V34.0308H29.8586V33.0308Z" fill="white" fill-opacity="0.83"/>
<path d="M21.8586 44.0308H22.8586V45.0308H23.8586V46.0308H22.8586V45.0308H21.8586V44.0308Z" fill="white" fill-opacity="0.83"/>
<path d="M25.8586 45.0308H24.8586V46.0308H25.8586V45.0308Z" fill="white" fill-opacity="0.83"/>
<path d="M27.8586 47.0308H26.8586V48.0308H27.8586V47.0308Z" fill="white" fill-opacity="0.83"/>
<path d="M28.8586 50.0308H27.8586V51.0308H28.8586V50.0308Z" fill="white" fill-opacity="0.87"/>
<path d="M20.8586 46.0308H19.8586V47.0308H20.8586V46.0308Z" fill="white" fill-opacity="0.91"/>
<path d="M26.8586 52.0308H25.8586V53.0308H26.8586V52.0308Z" fill="white" fill-opacity="0.91"/>
<path d="M21.8586 45.0308H20.8586V46.0308H21.8586V45.0308Z" fill="white" fill-opacity="0.98"/>
<path d="M27.8586 45.0308H26.8586V46.0308H27.8586V45.0308Z" fill="white" fill-opacity="0.98"/>
<path d="M43.8586 45.0308H42.8586V46.0308H43.8586V45.0308Z" fill="white" fill-opacity="0.98"/>
<path d="M19.8586 51.0308V50.0308H20.8586H21.8586V51.0308H22.8586V52.0308V53.0308H21.8586V52.0308V51.0308H20.8586H19.8586Z" fill="white" fill-opacity="0.98"/>
<path d="M22.8586 45.0308V44.0308H23.8586H24.8586H25.8586V45.0308H26.8586V46.0308H27.8586V47.0308H28.8586V48.0308V49.0308V50.0308H27.8586V51.0308V52.0308H26.8586H25.8586V53.0308H24.8586H23.8586H22.8586V52.0308H23.8586H24.8586H25.8586V51.0308L26.8586 50.0308H27.8586V49.0308V48.0308V47.0308H26.8586V46.0308H25.8586V45.0308H24.8586H23.8586H22.8586V46.0308H21.8586V47.0308H20.8586V48.0308V49.0308V50.0308H19.8586V49.0308V48.0308V47.0308H20.8586V46.0308H21.8586V45.0308H22.8586Z" fill="white"/>
<path d="M21.8586 51.0308H20.8586V52.0308H21.8586V51.0308Z" fill="white"/>
<path d="M22.8586 50.0308H21.8586V51.0308H22.8586V50.0308Z" fill="#FFF5F5" fill-opacity="0.27"/>
<path d="M26.8586 50.0308H25.8586V51.0308H26.8586V50.0308Z" fill="#FFFBFB" fill-opacity="0.34"/>
</svg>
