<svg width="65" height="63" viewBox="0 0 65 63" fill="none" xmlns="http://www.w3.org/2000/svg">
<path d="M36.9138 0.191772H35.8104V1.29892H36.9138V0.191772Z" fill="white" fill-opacity="0.14"/>
<path d="M39.1207 0.191772H38.0173V1.29892H39.1207V0.191772Z" fill="white" fill-opacity="0.14"/>
<path d="M43.5345 5.72749H42.4311V6.83463H43.5345V5.72749Z" fill="white" fill-opacity="0.14"/>
<path d="M40.2242 7.94177H39.1207V9.04891H40.2242V7.94177Z" fill="white" fill-opacity="0.14"/>
<path d="M18.1552 17.9061H17.0518V19.0132H18.1552V17.9061Z" fill="white" fill-opacity="0.14"/>
<path d="M47.9483 17.9061H46.8449V19.0132H47.9483V17.9061Z" fill="white" fill-opacity="0.14"/>
<path d="M49.0518 20.1203H47.9483V21.2275H49.0518V20.1203Z" fill="white" fill-opacity="0.14"/>
<path d="M15.9483 21.2275H14.8449V22.3346H15.9483V21.2275Z" fill="white" fill-opacity="0.14"/>
<path d="M30.2931 28.9775H29.1897V30.0846H30.2931V28.9775Z" fill="white" fill-opacity="0.14"/>
<path d="M64.5 30.0846H63.3966V31.1918H64.5V30.0846Z" fill="white" fill-opacity="0.14"/>
<path d="M19.2587 32.2989H18.1552V33.4061H19.2587V32.2989Z" fill="white" fill-opacity="0.14"/>
<path d="M34.7069 32.2989H33.6035V33.4061H34.7069V32.2989Z" fill="white" fill-opacity="0.14"/>
<path d="M46.8449 33.4061H45.7414V34.5132H46.8449V33.4061Z" fill="white" fill-opacity="0.14"/>
<path d="M44.638 34.5132H43.5345V35.6203H44.638V34.5132Z" fill="white" fill-opacity="0.14"/>
<path d="M42.4311 35.6203H41.3276V36.7275H42.4311V35.6203Z" fill="white" fill-opacity="0.14"/>
<path d="M15.9483 36.7275H14.8449V37.8346H15.9483V36.7275Z" fill="white" fill-opacity="0.14"/>
<path d="M46.8449 38.9418H45.7414V40.0489H46.8449V38.9418Z" fill="white" fill-opacity="0.14"/>
<path d="M8.22418 44.4775H7.12073V45.5846H8.22418V44.4775Z" fill="white" fill-opacity="0.14"/>
<path d="M57.8793 44.4775H56.7759V45.5846H57.8793V44.4775Z" fill="white" fill-opacity="0.14"/>
<path d="M17.0518 45.5846H15.9483V46.6918H17.0518V45.5846Z" fill="white" fill-opacity="0.14"/>
<path d="M49.0518 45.5846H47.9483V46.6918H49.0518V45.5846Z" fill="white" fill-opacity="0.14"/>
<path d="M20.3621 53.3346V58.8703L21.4656 54.4418V53.3346H20.3621Z" fill="white" fill-opacity="0.14"/>
<path d="M43.5345 53.3346V54.4418L44.638 58.8703V53.3346H43.5345Z" fill="white" fill-opacity="0.14"/>
<path d="M30.2931 57.7632H31.3966V58.8703H30.2931V59.9775H29.1897V58.8703H30.2931V57.7632Z" fill="white" fill-opacity="0.14"/>
<path d="M33.6035 57.7632H34.7069V58.8703H35.8104V59.9775H34.7069V58.8703H33.6035V57.7632Z" fill="white" fill-opacity="0.14"/>
<path d="M25.8793 58.8703H24.7759V59.9775H25.8793V58.8703Z" fill="white" fill-opacity="0.14"/>
<path d="M40.2242 58.8703H39.1207V59.9775H40.2242V58.8703Z" fill="white" fill-opacity="0.14"/>
<path d="M28.0862 61.0846H26.9828V62.1918H28.0862V61.0846Z" fill="white" fill-opacity="0.14"/>
<path d="M38.0173 61.0846H36.9138V62.1918H38.0173V61.0846Z" fill="white" fill-opacity="0.14"/>
<path d="M15.9483 24.549H14.8448V25.6561H15.9483V24.549Z" fill="white" fill-opacity="0.17"/>
<path d="M1.60345 30.0847H0.5V31.1918H1.60345V30.0847Z" fill="white" fill-opacity="0.17"/>
<path d="M42.431 30.0847H41.3276V31.1918H42.431V30.0847Z" fill="white" fill-opacity="0.17"/>
<path d="M23.6724 32.299H22.569V33.4061H23.6724V32.299Z" fill="white" fill-opacity="0.17"/>
<path d="M15.9483 35.6204H14.8448V36.7275H15.9483V35.6204Z" fill="white" fill-opacity="0.17"/>
<path d="M32.5 35.6204H31.3966V36.7275H32.5V35.6204Z" fill="white" fill-opacity="0.17"/>
<path d="M23.6724 41.1561H22.569V42.2632H23.6724V41.1561Z" fill="white" fill-opacity="0.17"/>
<path d="M42.431 41.1561H41.3276V42.2632H42.431V41.1561Z" fill="white" fill-opacity="0.17"/>
<path d="M18.1552 46.6918H17.0517V47.799H18.1552V46.6918Z" fill="white" fill-opacity="0.17"/>
<path d="M21.4655 52.2275H20.3621V53.3347H21.4655V52.2275Z" fill="white" fill-opacity="0.17"/>
<path d="M1.60345 58.8704H0.5V59.9775H1.60345V58.8704Z" fill="white" fill-opacity="0.17"/>
<path d="M64.5 58.8704H63.3966V59.9775H64.5V58.8704Z" fill="white" fill-opacity="0.17"/>
<path d="M14.8448 14.5846H13.7413V15.6917H14.8448V14.5846Z" fill="white" fill-opacity="0.22"/>
<path d="M51.2586 14.5846H50.1551V15.6917H51.2586V14.5846Z" fill="white" fill-opacity="0.22"/>
<path d="M18.1551 16.7989H17.0517V17.906H18.1551V16.7989Z" fill="white" fill-opacity="0.22"/>
<path d="M47.9482 16.7989H46.8448V17.906H47.9482V16.7989Z" fill="white" fill-opacity="0.22"/>
<path d="M50.1551 21.2275H49.0517V22.3346H50.1551V21.2275Z" fill="white" fill-opacity="0.22"/>
<path d="M7.12065 24.5489V40.0489H8.2241V24.5489H7.12065Z" fill="white" fill-opacity="0.22"/>
<path d="M56.7758 24.5489V40.0489H57.8793V24.5489H56.7758Z" fill="white" fill-opacity="0.22"/>
<path d="M15.9482 34.5132H14.8448V35.6203H15.9482V34.5132Z" fill="white" fill-opacity="0.22"/>
<path d="M47.9482 34.5132H46.8448V35.6203H47.9482V34.5132Z" fill="white" fill-opacity="0.22"/>
<path d="M50.1551 36.7275H49.0517V37.8346H50.1551V36.7275Z" fill="white" fill-opacity="0.22"/>
<path d="M7.12065 43.3703H6.0172V44.4775H7.12065V43.3703Z" fill="white" fill-opacity="0.22"/>
<path d="M24.7758 43.3703H23.6724V44.4775H24.7758V43.3703Z" fill="white" fill-opacity="0.22"/>
<path d="M41.3275 43.3703H40.2241V44.4775H41.3275V43.3703Z" fill="white" fill-opacity="0.22"/>
<path d="M58.9827 43.3703H57.8793V44.4775H58.9827V43.3703Z" fill="white" fill-opacity="0.22"/>
<path d="M47.9482 46.6917H46.8448V47.7989H47.9482V46.6917Z" fill="white" fill-opacity="0.22"/>
<path d="M44.6379 52.2275H43.5344V53.3346H44.6379V52.2275Z" fill="white" fill-opacity="0.22"/>
<path d="M3.8103 58.8703V59.9775H17.0517V58.8703H3.8103Z" fill="white" fill-opacity="0.22"/>
<path d="M47.9482 58.8703V59.9775H61.1896V58.8703H47.9482Z" fill="white" fill-opacity="0.22"/>
<path d="M19.2586 61.0846H18.1551V62.1917H19.2586V61.0846Z" fill="white" fill-opacity="0.22"/>
<path d="M46.8448 61.0846H45.7413V62.1917H46.8448V61.0846Z" fill="white" fill-opacity="0.22"/>
<path d="M22.569 5.72742L36.9138 6.83456H38.0173V5.72742H22.569Z" fill="white" fill-opacity="0.25"/>
<path d="M12.638 11.2631H11.5345V12.3703H12.638V11.2631Z" fill="white" fill-opacity="0.25"/>
<path d="M53.4656 11.2631H52.3621V12.3703H53.4656V11.2631Z" fill="white" fill-opacity="0.25"/>
<path d="M51.2587 23.4417H50.1552V24.5488H51.2587V23.4417Z" fill="white" fill-opacity="0.25"/>
<path d="M19.2587 26.7631H18.1552V27.8703H19.2587V26.7631Z" fill="white" fill-opacity="0.25"/>
<path d="M26.9828 26.7631H25.8793V27.8703H26.9828V26.7631Z" fill="white" fill-opacity="0.25"/>
<path d="M19.2587 38.9417H18.1552V40.0488H19.2587V38.9417Z" fill="white" fill-opacity="0.25"/>
<path d="M8.22418 40.0488H7.12073V41.156H8.22418V40.0488Z" fill="white" fill-opacity="0.25"/>
<path d="M57.8793 40.0488H56.7759V41.156H57.8793V40.0488Z" fill="white" fill-opacity="0.25"/>
<path d="M25.8793 45.5846H24.7759V46.6917H25.8793V45.5846Z" fill="white" fill-opacity="0.25"/>
<path d="M40.2242 45.5846H39.1207V46.6917H40.2242V45.5846Z" fill="white" fill-opacity="0.25"/>
<path d="M22.569 53.3346H21.4656V54.4417H22.569V53.3346Z" fill="white" fill-opacity="0.25"/>
<path d="M43.5345 53.3346H42.4311V54.4417H43.5345V53.3346Z" fill="white" fill-opacity="0.25"/>
<path d="M18.1552 58.8703H17.0518V59.9774H18.1552V58.8703Z" fill="white" fill-opacity="0.25"/>
<path d="M47.9483 58.8703H46.8449V59.9774H47.9483V58.8703Z" fill="white" fill-opacity="0.25"/>
<path d="M43.5345 28.9775H42.431V30.0847H43.5345V28.9775Z" fill="white" fill-opacity="0.3"/>
<path d="M15.9483 33.4061H14.8448V34.5133H15.9483V33.4061Z" fill="white" fill-opacity="0.3"/>
<path d="M26.9828 47.799H25.8793V48.9061H26.9828V47.799Z" fill="white" fill-opacity="0.3"/>
<path d="M39.1207 47.799H38.0173V48.9061H39.1207V47.799Z" fill="white" fill-opacity="0.3"/>
<path d="M24.7759 56.6561H23.6724V57.7633H24.7759V56.6561Z" fill="white" fill-opacity="0.3"/>
<path d="M41.3276 56.6561H40.2242V57.7633H41.3276V56.6561Z" fill="white" fill-opacity="0.3"/>
<path d="M26.9828 59.9775H25.8793V61.0847H26.9828V59.9775Z" fill="white" fill-opacity="0.3"/>
<path d="M39.1207 59.9775H38.0173V61.0847H39.1207V59.9775Z" fill="white" fill-opacity="0.3"/>
<path d="M3.81036 61.0847H2.70691V62.1918H3.81036V61.0847Z" fill="white" fill-opacity="0.3"/>
<path d="M62.2931 61.0847H61.1897V62.1918H62.2931V61.0847Z" fill="white" fill-opacity="0.3"/>
<path d="M36.9138 1.29883H35.8103V2.40597H36.9138V1.29883Z" fill="white" fill-opacity="0.34"/>
<path d="M25.8793 24.5488H24.7759V25.656H25.8793V24.5488Z" fill="white" fill-opacity="0.34"/>
<path d="M49.0517 24.5488H47.9483V25.656H49.0517V24.5488Z" fill="white" fill-opacity="0.34"/>
<path d="M28.0862 27.8703H26.9828V28.9774H28.0862V27.8703Z" fill="white" fill-opacity="0.34"/>
<path d="M4.91379 28.9774H3.81034V30.0845H4.91379V28.9774Z" fill="white" fill-opacity="0.34"/>
<path d="M61.1897 28.9774H60.0862V30.0845H61.1897V28.9774Z" fill="white" fill-opacity="0.34"/>
<path d="M29.1897 30.0845H28.0862V31.1917H29.1897V30.0845Z" fill="white" fill-opacity="0.34"/>
<path d="M26.9828 31.1917H25.8793V32.2988H26.9828V31.1917Z" fill="white" fill-opacity="0.34"/>
<path d="M2.7069 32.2988V58.8703H3.81034V32.2988H2.7069Z" fill="white" fill-opacity="0.34"/>
<path d="M15.9483 32.2988H14.8448V33.406H15.9483V32.2988Z" fill="white" fill-opacity="0.34"/>
<path d="M61.1897 32.2988V58.8703H62.2931V32.2988H61.1897Z" fill="white" fill-opacity="0.34"/>
<path d="M6.01724 41.156H4.91379V42.2631H6.01724V41.156Z" fill="white" fill-opacity="0.34"/>
<path d="M60.0862 41.156H58.9828V42.2631H60.0862V41.156Z" fill="white" fill-opacity="0.34"/>
<path d="M28.0862 50.0131H26.9828V51.1203H28.0862V50.0131Z" fill="white" fill-opacity="0.34"/>
<path d="M38.0172 50.0131H36.9138V51.1203H38.0172V50.0131Z" fill="white" fill-opacity="0.34"/>
<path d="M1.60345 57.7631H0.5V58.8703H1.60345V57.7631Z" fill="white" fill-opacity="0.34"/>
<path d="M64.5 57.7631H63.3966V58.8703H64.5V57.7631Z" fill="white" fill-opacity="0.34"/>
<path d="M29.1897 58.8703H28.0862V59.9774H29.1897V58.8703Z" fill="white" fill-opacity="0.34"/>
<path d="M36.9138 58.8703H35.8103V59.9774H36.9138V58.8703Z" fill="white" fill-opacity="0.34"/>
<path d="M38.0172 2.40613H36.9138V3.51327H38.0172V2.40613Z" fill="white" fill-opacity="0.39"/>
<path d="M41.3276 6.8347H40.2241V7.94184H41.3276V6.8347Z" fill="white" fill-opacity="0.39"/>
<path d="M8.22414 19.0133H7.12069V20.1204H8.22414V19.0133Z" fill="white" fill-opacity="0.39"/>
<path d="M57.8793 19.0133H56.7759V20.1204H57.8793V19.0133Z" fill="white" fill-opacity="0.39"/>
<path d="M25.8793 26.7633H24.7759V27.8704H25.8793V26.7633Z" fill="white" fill-opacity="0.39"/>
<path d="M30.2931 27.8704H29.1897V28.9776H30.2931V27.8704Z" fill="white" fill-opacity="0.39"/>
<path d="M3.81034 28.9776H2.7069V30.0847H3.81034V28.9776Z" fill="white" fill-opacity="0.39"/>
<path d="M62.2931 28.9776H61.1897V30.0847H62.2931V28.9776Z" fill="white" fill-opacity="0.39"/>
<path d="M0.5 31.1918V57.7633H1.60345V31.1918H0.5Z" fill="white" fill-opacity="0.39"/>
<path d="M15.9483 31.1918H14.8448V32.299H15.9483V31.1918Z" fill="white" fill-opacity="0.39"/>
<path d="M40.2241 31.1918H39.1207V32.299H40.2241V31.1918Z" fill="white" fill-opacity="0.39"/>
<path d="M63.3966 31.1918V57.7633H64.5V31.1918H63.3966Z" fill="white" fill-opacity="0.39"/>
<path d="M18.1552 32.299H17.0517V33.4061H18.1552V32.299Z" fill="white" fill-opacity="0.39"/>
<path d="M41.3276 33.4061H40.2241V34.5133H41.3276V33.4061Z" fill="white" fill-opacity="0.39"/>
<path d="M41.3276 35.6204H40.2241V36.7276H41.3276V35.6204Z" fill="white" fill-opacity="0.39"/>
<path d="M47.9483 35.6204H46.8448V36.7276H47.9483V35.6204Z" fill="white" fill-opacity="0.39"/>
<path d="M50.1552 35.6204H49.0517V36.7276H50.1552V35.6204Z" fill="white" fill-opacity="0.39"/>
<path d="M45.7414 36.7276H44.6379V37.8347H45.7414V36.7276Z" fill="white" fill-opacity="0.39"/>
<path d="M45.7414 38.9418H44.6379V40.049H45.7414V38.9418Z" fill="white" fill-opacity="0.39"/>
<path d="M29.1897 52.2276H28.0862V53.3347H29.1897V52.2276Z" fill="white" fill-opacity="0.39"/>
<path d="M36.9138 52.2276H35.8103V53.3347H36.9138V52.2276Z" fill="white" fill-opacity="0.39"/>
<path d="M30.2931 54.4418H29.1897V55.549H30.2931V54.4418Z" fill="white" fill-opacity="0.39"/>
<path d="M35.8103 54.4418H34.7069V55.549H35.8103V54.4418Z" fill="white" fill-opacity="0.39"/>
<path d="M20.3621 59.9776H19.2586V61.0847H20.3621V59.9776Z" fill="white" fill-opacity="0.39"/>
<path d="M45.7414 59.9776H44.6379V61.0847H45.7414V59.9776Z" fill="white" fill-opacity="0.39"/>
<path d="M31.3966 61.0847H30.2931V62.1918H31.3966V61.0847Z" fill="white" fill-opacity="0.39"/>
<path d="M34.7069 61.0847H33.6034V62.1918H34.7069V61.0847Z" fill="white" fill-opacity="0.39"/>
<path d="M22.569 3.51318V4.62033H38.0173V3.51318H36.9138H22.569Z" fill="white" fill-opacity="0.46"/>
<path d="M10.4311 14.5846H9.32762V15.6918H10.4311V14.5846Z" fill="white" fill-opacity="0.46"/>
<path d="M55.6725 14.5846H54.569V15.6918H55.6725V14.5846Z" fill="white" fill-opacity="0.46"/>
<path d="M8.22418 23.4418H7.12073V24.5489H8.22418V23.4418Z" fill="white" fill-opacity="0.46"/>
<path d="M57.8793 23.4418H56.7759V24.5489H57.8793V23.4418Z" fill="white" fill-opacity="0.46"/>
<path d="M30.2931 26.7632H29.1897V27.8703H30.2931V26.7632Z" fill="white" fill-opacity="0.46"/>
<path d="M44.638 27.8703H43.5345V28.9775H44.638V27.8703Z" fill="white" fill-opacity="0.46"/>
<path d="M26.9828 28.9775H25.8793V30.0846H26.9828V28.9775Z" fill="white" fill-opacity="0.46"/>
<path d="M15.9483 30.0846H14.8449V31.1918H15.9483V30.0846Z" fill="white" fill-opacity="0.46"/>
<path d="M33.6035 30.0846H32.5V31.1918H33.6035V30.0846Z" fill="white" fill-opacity="0.46"/>
<path d="M22.569 32.2989H21.4656V33.406H22.569V32.2989Z" fill="white" fill-opacity="0.46"/>
<path d="M18.1552 33.406H17.0518V34.5132H18.1552V33.406Z" fill="white" fill-opacity="0.46"/>
<path d="M31.3966 56.656H30.2931V57.7632H31.3966V56.656Z" fill="white" fill-opacity="0.46"/>
<path d="M34.7069 56.656H33.6035V57.7632H34.7069V56.656Z" fill="white" fill-opacity="0.46"/>
<path d="M12.638 13.4774H11.5345V14.5846H12.638V13.4774Z" fill="white" fill-opacity="0.49"/>
<path d="M53.4655 13.4774H52.3621V14.5846H53.4655V13.4774Z" fill="white" fill-opacity="0.49"/>
<path d="M14.8449 23.4417H13.7414V24.5488H14.8449V23.4417Z" fill="white" fill-opacity="0.49"/>
<path d="M26.9828 24.5488H25.8793V25.656H26.9828V24.5488Z" fill="white" fill-opacity="0.49"/>
<path d="M40.2242 28.9774H39.1207V30.0846H40.2242V28.9774Z" fill="white" fill-opacity="0.49"/>
<path d="M18.1552 34.5131H17.0517V35.6203H18.1552V34.5131Z" fill="white" fill-opacity="0.49"/>
<path d="M20.3621 38.9417H19.2586V40.0488H20.3621V38.9417Z" fill="white" fill-opacity="0.49"/>
<path d="M6.01727 40.0488H4.91382V41.156H6.01727V40.0488Z" fill="white" fill-opacity="0.49"/>
<path d="M60.0862 40.0488H58.9828V41.156H60.0862V40.0488Z" fill="white" fill-opacity="0.49"/>
<path d="M31.3966 54.4417V55.5488H33.6035V54.4417H31.3966Z" fill="white" fill-opacity="0.49"/>
<path d="M18.1552 61.0846H17.0517V62.1917H18.1552V61.0846Z" fill="white" fill-opacity="0.49"/>
<path d="M29.1897 61.0846H28.0862V62.1917H29.1897V61.0846Z" fill="white" fill-opacity="0.49"/>
<path d="M36.9138 61.0846H35.8104V62.1917H36.9138V61.0846Z" fill="white" fill-opacity="0.49"/>
<path d="M47.9483 61.0846H46.8449V62.1917H47.9483V61.0846Z" fill="white" fill-opacity="0.49"/>
<path d="M38.0172 0.191772H36.9137V1.29892H38.0172V0.191772Z" fill="white" fill-opacity="0.52"/>
<path d="M15.9482 16.7989H14.8448V17.9061H15.9482V16.7989Z" fill="white" fill-opacity="0.52"/>
<path d="M50.1551 16.7989H49.0517V17.9061H50.1551V16.7989Z" fill="white" fill-opacity="0.52"/>
<path d="M4.91375 24.5489V28.9775H6.0172V24.5489H4.91375Z" fill="white" fill-opacity="0.52"/>
<path d="M58.9827 24.5489V28.9775H60.0862V24.5489H58.9827Z" fill="white" fill-opacity="0.52"/>
<path d="M17.0517 28.9775H15.9482V30.0846H17.0517V28.9775Z" fill="white" fill-opacity="0.52"/>
<path d="M47.9482 32.2989H46.8448V33.4061H47.9482V32.2989Z" fill="white" fill-opacity="0.52"/>
<path d="M4.91375 34.5132V40.0489H6.0172V34.5132H4.91375Z" fill="white" fill-opacity="0.52"/>
<path d="M58.9827 34.5132V40.0489H60.0862V34.5132H58.9827Z" fill="white" fill-opacity="0.52"/>
<path d="M19.2586 36.7275H18.1551V37.8346H19.2586V36.7275Z" fill="white" fill-opacity="0.52"/>
<path d="M8.2241 41.1561H7.12065V42.2632H8.2241V41.1561Z" fill="white" fill-opacity="0.52"/>
<path d="M57.8793 41.1561H56.7758V42.2632H57.8793V41.1561Z" fill="white" fill-opacity="0.52"/>
<path d="M9.32754 44.4775H8.2241V45.5846H9.32754V44.4775Z" fill="white" fill-opacity="0.52"/>
<path d="M56.7758 44.4775H55.6724V45.5846H56.7758V44.4775Z" fill="white" fill-opacity="0.52"/>
<path d="M31.3965 58.8703H30.2931V59.9775H31.3965V58.8703Z" fill="white" fill-opacity="0.52"/>
<path d="M34.7069 58.8703H33.6034V59.9775H34.7069V58.8703Z" fill="white" fill-opacity="0.52"/>
<path d="M4.91375 61.0846H3.8103V62.1918H4.91375V61.0846Z" fill="white" fill-opacity="0.52"/>
<path d="M61.1896 61.0846H60.0862V62.1918H61.1896V61.0846Z" fill="white" fill-opacity="0.52"/>
<path d="M57.8793 14.5846H56.7759V15.6917H57.8793V14.5846Z" fill="white" fill-opacity="0.55"/>
<path d="M18.1552 25.656H17.0517V26.7632H18.1552V25.656Z" fill="white" fill-opacity="0.55"/>
<path d="M24.7759 26.7632H23.6724V27.8703H24.7759V26.7632Z" fill="white" fill-opacity="0.55"/>
<path d="M45.7414 26.7632H44.638V27.8703H45.7414V26.7632Z" fill="white" fill-opacity="0.55"/>
<path d="M6.01727 28.9775H4.91382V30.0846H6.01727V28.9775Z" fill="white" fill-opacity="0.55"/>
<path d="M60.0862 28.9775H58.9828V30.0846H60.0862V28.9775Z" fill="white" fill-opacity="0.55"/>
<path d="M39.1207 31.1917H38.0173V32.2989H39.1207V31.1917Z" fill="white" fill-opacity="0.55"/>
<path d="M6.01727 33.406H4.91382V34.5132H6.01727V33.406Z" fill="white" fill-opacity="0.55"/>
<path d="M45.7414 33.406H44.638V34.5132H45.7414V33.406Z" fill="white" fill-opacity="0.55"/>
<path d="M60.0862 33.406H58.9828V34.5132H60.0862V33.406Z" fill="white" fill-opacity="0.55"/>
<path d="M43.5345 34.5132H42.4311V35.6203H43.5345V34.5132Z" fill="white" fill-opacity="0.55"/>
<path d="M50.1552 34.5132H49.0518V35.6203H50.1552V34.5132Z" fill="white" fill-opacity="0.55"/>
<path d="M18.1552 35.6203H17.0517V36.7275H18.1552V35.6203Z" fill="white" fill-opacity="0.55"/>
<path d="M40.2242 35.6203H39.1207V36.7275H40.2242V35.6203Z" fill="white" fill-opacity="0.55"/>
<path d="M49.0518 37.8346H47.9483V38.9417H49.0518V37.8346Z" fill="white" fill-opacity="0.55"/>
<path d="M18.1552 48.906V57.7632H19.2586V48.906H18.1552Z" fill="white" fill-opacity="0.55"/>
<path d="M45.7414 48.906V57.7632H46.8449V48.906H45.7414Z" fill="white" fill-opacity="0.55"/>
<path d="M30.2931 50.0132H29.1897V51.1203H30.2931V50.0132Z" fill="white" fill-opacity="0.55"/>
<path d="M35.8104 50.0132H34.7069V51.1203H35.8104V50.0132Z" fill="white" fill-opacity="0.55"/>
<path d="M31.3966 52.2275H30.2931V53.3346H31.3966V52.2275Z" fill="white" fill-opacity="0.55"/>
<path d="M34.7069 52.2275H33.6035V53.3346H34.7069V52.2275Z" fill="white" fill-opacity="0.55"/>
<path d="M4.91382 61.0846V62.1917H17.0517V61.0846H4.91382Z" fill="white" fill-opacity="0.55"/>
<path d="M30.2931 61.0846H29.1897V62.1917H30.2931V61.0846Z" fill="white" fill-opacity="0.55"/>
<path d="M35.8104 61.0846H34.7069V62.1917H35.8104V61.0846Z" fill="white" fill-opacity="0.55"/>
<path d="M47.9483 61.0846V62.1917H60.0862V61.0846H47.9483Z" fill="white" fill-opacity="0.55"/>
<path d="M39.1206 3.51318H38.0172V4.62033H39.1206V3.51318Z" fill="white" fill-opacity="0.61"/>
<path d="M22.5689 4.62033H21.4655V5.72747H22.5689V4.62033Z" fill="white" fill-opacity="0.61"/>
<path d="M43.5344 4.62033H42.431V5.72747H43.5344V4.62033Z" fill="white" fill-opacity="0.61"/>
<path d="M38.0172 6.83461H36.9137V7.94176H38.0172V6.83461Z" fill="white" fill-opacity="0.61"/>
<path d="M13.7413 13.4775H12.6379V14.5846H13.7413V13.4775Z" fill="white" fill-opacity="0.61"/>
<path d="M52.362 13.4775H51.2586V14.5846H52.362V13.4775Z" fill="white" fill-opacity="0.61"/>
<path d="M8.22408 14.5846H7.12064V15.6918H8.22408V14.5846Z" fill="white" fill-opacity="0.61"/>
<path d="M15.9482 15.6918H14.8448V16.7989H15.9482V15.6918Z" fill="white" fill-opacity="0.61"/>
<path d="M50.1551 15.6918H49.0517V16.7989H50.1551V15.6918Z" fill="white" fill-opacity="0.61"/>
<path d="M9.32753 22.3346V23.4418H12.6379V22.3346H9.32753Z" fill="white" fill-opacity="0.61"/>
<path d="M49.0517 22.3346H47.9482V23.4418H49.0517V22.3346Z" fill="white" fill-opacity="0.61"/>
<path d="M52.362 22.3346V23.4418H55.6724V22.3346H52.362Z" fill="white" fill-opacity="0.61"/>
<path d="M28.0862 24.5489H26.9827V25.656H28.0862V24.5489Z" fill="white" fill-opacity="0.61"/>
<path d="M23.6724 30.0846H22.5689V31.1918H23.6724V30.0846Z" fill="white" fill-opacity="0.61"/>
<path d="M34.7068 30.0846H33.6034V31.1918H34.7068V30.0846Z" fill="white" fill-opacity="0.61"/>
<path d="M25.8793 31.1918H24.7758V32.2989H25.8793V31.1918Z" fill="white" fill-opacity="0.61"/>
<path d="M20.362 32.2989H19.2586V33.406H20.362V32.2989Z" fill="white" fill-opacity="0.61"/>
<path d="M34.7068 34.5132H33.6034V35.6203H34.7068V34.5132Z" fill="white" fill-opacity="0.61"/>
<path d="M46.8448 36.7275H45.7413V37.8346H46.8448V36.7275Z" fill="white" fill-opacity="0.61"/>
<path d="M19.2586 47.7989H18.1551V48.906H19.2586V47.7989Z" fill="white" fill-opacity="0.61"/>
<path d="M29.1896 47.7989H28.0862V48.906H29.1896V47.7989Z" fill="white" fill-opacity="0.61"/>
<path d="M36.9137 47.7989H35.8103V48.906H36.9137V47.7989Z" fill="white" fill-opacity="0.61"/>
<path d="M46.8448 47.7989H45.7413V48.906H46.8448V47.7989Z" fill="white" fill-opacity="0.61"/>
<path d="M23.6724 54.4418H22.5689V55.5489H23.6724V54.4418Z" fill="white" fill-opacity="0.61"/>
<path d="M42.431 54.4418H41.3275V55.5489H42.431V54.4418Z" fill="white" fill-opacity="0.61"/>
<path d="M19.2586 57.7632H18.1551V58.8703H19.2586V57.7632Z" fill="white" fill-opacity="0.61"/>
<path d="M46.8448 57.7632H45.7413V58.8703H46.8448V57.7632Z" fill="white" fill-opacity="0.61"/>
<path d="M2.70684 59.9775H1.60339V61.0846H2.70684V59.9775Z" fill="white" fill-opacity="0.61"/>
<path d="M63.3965 59.9775H62.293V61.0846H63.3965V59.9775Z" fill="white" fill-opacity="0.61"/>
<path d="M11.5345 13.4774H10.431V14.5846H11.5345V13.4774Z" fill="white" fill-opacity="0.68"/>
<path d="M54.5689 13.4774H53.4655V14.5846H54.5689V13.4774Z" fill="white" fill-opacity="0.68"/>
<path d="M17.0517 19.0131H15.9483V20.1203H17.0517V19.0131Z" fill="white" fill-opacity="0.68"/>
<path d="M49.0517 19.0131H47.9483V20.1203H49.0517V19.0131Z" fill="white" fill-opacity="0.68"/>
<path d="M9.32757 20.1203H8.22412V21.2274H9.32757V20.1203Z" fill="white" fill-opacity="0.68"/>
<path d="M56.7758 20.1203H55.6724V21.2274H56.7758V20.1203Z" fill="white" fill-opacity="0.68"/>
<path d="M9.32757 22.3346H8.22412V23.4417H9.32757V22.3346Z" fill="white" fill-opacity="0.68"/>
<path d="M56.7758 22.3346H55.6724V23.4417H56.7758V22.3346Z" fill="white" fill-opacity="0.68"/>
<path d="M46.8448 25.656H45.7414V26.7631H46.8448V25.656Z" fill="white" fill-opacity="0.68"/>
<path d="M23.6724 26.7631H22.5689V27.8703H23.6724V26.7631Z" fill="white" fill-opacity="0.68"/>
<path d="M38.0172 31.1917H36.9138V32.2988H38.0172V31.1917Z" fill="white" fill-opacity="0.68"/>
<path d="M21.4655 32.2988H20.3621V33.406H21.4655V32.2988Z" fill="white" fill-opacity="0.68"/>
<path d="M50.1552 33.406H49.0517V34.5131H50.1552V33.406Z" fill="white" fill-opacity="0.68"/>
<path d="M39.1207 35.6203H38.0172V36.7274H39.1207V35.6203Z" fill="white" fill-opacity="0.68"/>
<path d="M44.6379 38.9417H43.5345V40.0488H44.6379V38.9417Z" fill="white" fill-opacity="0.68"/>
<path d="M24.7758 42.2631H23.6724V43.3703H24.7758V42.2631Z" fill="white" fill-opacity="0.68"/>
<path d="M41.3276 42.2631H40.2241V43.3703H41.3276V42.2631Z" fill="white" fill-opacity="0.68"/>
<path d="M26.9827 43.3703H25.8793V44.4774H26.9827V43.3703Z" fill="white" fill-opacity="0.68"/>
<path d="M39.1207 43.3703H38.0172V44.4774H39.1207V43.3703Z" fill="white" fill-opacity="0.68"/>
<path d="M28.0862 45.5846H26.9827V46.6917H28.0862V45.5846Z" fill="white" fill-opacity="0.68"/>
<path d="M38.0172 45.5846H36.9138V46.6917H38.0172V45.5846Z" fill="white" fill-opacity="0.68"/>
<path d="M25.8793 57.7631H24.7758V58.8703H25.8793V57.7631Z" fill="white" fill-opacity="0.68"/>
<path d="M40.2241 57.7631H39.1207V58.8703H40.2241V57.7631Z" fill="white" fill-opacity="0.68"/>
<path d="M10.431 12.3704H9.3276V13.4775H10.431V12.3704Z" fill="white" fill-opacity="0.74"/>
<path d="M55.6724 12.3704H54.569V13.4775H55.6724V12.3704Z" fill="white" fill-opacity="0.74"/>
<path d="M10.431 19.0132H9.3276V20.1204H10.431V19.0132Z" fill="white" fill-opacity="0.74"/>
<path d="M55.6724 19.0132H54.569V20.1204H55.6724V19.0132Z" fill="white" fill-opacity="0.74"/>
<path d="M52.3621 22.3346H51.2586V23.4418H52.3621V22.3346Z" fill="white" fill-opacity="0.74"/>
<path d="M21.4655 25.6561H20.3621V26.7632H21.4655V25.6561Z" fill="white" fill-opacity="0.74"/>
<path d="M19.2586 30.0846H18.1552V31.1918H19.2586V30.0846Z" fill="white" fill-opacity="0.74"/>
<path d="M35.8104 30.0846H34.7069V31.1918H35.8104V30.0846Z" fill="white" fill-opacity="0.74"/>
<path d="M32.5 34.5132H31.3966V35.6204H32.5V34.5132Z" fill="white" fill-opacity="0.74"/>
<path d="M35.8104 34.5132H34.7069V35.6204H35.8104V34.5132Z" fill="white" fill-opacity="0.74"/>
<path d="M17.0517 37.8346H15.9483V38.9418H17.0517V37.8346Z" fill="white" fill-opacity="0.74"/>
<path d="M21.4655 38.9418H20.3621V40.0489H21.4655V38.9418Z" fill="white" fill-opacity="0.74"/>
<path d="M23.6724 40.0489H22.569V41.1561H23.6724V40.0489Z" fill="white" fill-opacity="0.74"/>
<path d="M42.431 40.0489H41.3276V41.1561H42.431V40.0489Z" fill="white" fill-opacity="0.74"/>
<path d="M25.8793 41.1561H24.7759V42.2632H25.8793V41.1561Z" fill="white" fill-opacity="0.74"/>
<path d="M40.2242 41.1561H39.1207V42.2632H40.2242V41.1561Z" fill="white" fill-opacity="0.74"/>
<path d="M10.431 44.4775H9.3276V45.5846H10.431V44.4775Z" fill="white" fill-opacity="0.74"/>
<path d="M25.8793 44.4775H24.7759V45.5846H25.8793V44.4775Z" fill="white" fill-opacity="0.74"/>
<path d="M40.2242 44.4775H39.1207V45.5846H40.2242V44.4775Z" fill="white" fill-opacity="0.74"/>
<path d="M55.6724 44.4775H54.569V45.5846H55.6724V44.4775Z" fill="white" fill-opacity="0.74"/>
<path d="M26.9828 46.6918H25.8793V47.7989H26.9828V46.6918Z" fill="white" fill-opacity="0.74"/>
<path d="M26.9828 56.6561H25.8793V57.7632H26.9828V56.6561Z" fill="white" fill-opacity="0.74"/>
<path d="M39.1207 56.6561H38.0173V57.7632H39.1207V56.6561Z" fill="white" fill-opacity="0.74"/>
<path d="M3.81036 58.8704H2.70691V59.9775H3.81036V58.8704Z" fill="white" fill-opacity="0.74"/>
<path d="M62.2931 58.8704H61.1897V59.9775H62.2931V58.8704Z" fill="white" fill-opacity="0.74"/>
<path d="M39.1207 7.94177H38.0173V9.04892H39.1207V7.94177Z" fill="white" fill-opacity="0.8"/>
<path d="M8.22418 16.7989H9.32762V17.9061H8.22418V19.0132H7.12073V17.9061H8.22418V16.7989Z" fill="white" fill-opacity="0.8"/>
<path d="M55.6725 16.7989H56.7759V17.9061H57.8793V19.0132H56.7759V17.9061H55.6725V16.7989Z" fill="white" fill-opacity="0.8"/>
<path d="M15.9483 17.9061H14.8449V19.0132H15.9483V17.9061Z" fill="white" fill-opacity="0.8"/>
<path d="M50.1552 17.9061H49.0518V19.0132H50.1552V17.9061Z" fill="white" fill-opacity="0.8"/>
<path d="M8.22418 21.2275H7.12073V22.3346H8.22418V21.2275Z" fill="white" fill-opacity="0.8"/>
<path d="M57.8793 21.2275H56.7759V22.3346H57.8793V21.2275Z" fill="white" fill-opacity="0.8"/>
<path d="M13.7414 22.3346H12.638V23.4418H13.7414V22.3346Z" fill="white" fill-opacity="0.8"/>
<path d="M50.1552 23.4418H49.0518V24.5489H50.1552V23.4418Z" fill="white" fill-opacity="0.8"/>
<path d="M19.2587 24.5489H18.1552V25.6561H19.2587V24.5489Z" fill="white" fill-opacity="0.8"/>
<path d="M44.638 25.6561H43.5345V26.7632H44.638V25.6561Z" fill="white" fill-opacity="0.8"/>
<path d="M31.3966 31.1918H32.5V32.2989H33.6035V33.4061V34.5132H32.5V33.4061V32.2989H31.3966V31.1918Z" fill="white" fill-opacity="0.8"/>
<path d="M38.0173 35.6203H36.9138V36.7275H38.0173V35.6203Z" fill="white" fill-opacity="0.8"/>
<path d="M22.569 37.8346H21.4656V38.9418H22.569V37.8346Z" fill="white" fill-opacity="0.8"/>
<path d="M43.5345 37.8346H42.4311V38.9418H43.5345V37.8346Z" fill="white" fill-opacity="0.8"/>
<path d="M15.9483 43.3703H17.0518V44.4775H15.9483V45.5846H10.4311V44.4775H15.9483V43.3703Z" fill="white" fill-opacity="0.8"/>
<path d="M47.9483 43.3703H49.0518V44.4775H54.569V45.5846H49.0518V44.4775H47.9483V43.3703Z" fill="white" fill-opacity="0.8"/>
<path d="M39.1207 46.6918H38.0173V47.7989H39.1207V46.6918Z" fill="white" fill-opacity="0.8"/>
<path d="M28.0862 48.9061H26.9828V50.0132H28.0862V48.9061Z" fill="white" fill-opacity="0.8"/>
<path d="M38.0173 48.9061H36.9138V50.0132H38.0173V48.9061Z" fill="white" fill-opacity="0.8"/>
<path d="M22.569 50.0132H21.4656V51.1203H22.569V50.0132Z" fill="white" fill-opacity="0.8"/>
<path d="M43.5345 50.0132H42.4311V51.1203H43.5345V50.0132Z" fill="white" fill-opacity="0.8"/>
<path d="M24.7759 53.3346H23.6725V54.4418H24.7759V53.3346Z" fill="white" fill-opacity="0.8"/>
<path d="M41.3276 53.3346H40.2242V54.4418H41.3276V53.3346Z" fill="white" fill-opacity="0.8"/>
<path d="M42.4311 3.51318H41.3276V4.62033H42.4311V3.51318Z" fill="white" fill-opacity="0.84"/>
<path d="M14.8449 12.3703H13.7414V13.4775H14.8449V12.3703Z" fill="white" fill-opacity="0.84"/>
<path d="M51.2587 12.3703H50.1552V13.4775H51.2587V12.3703Z" fill="white" fill-opacity="0.84"/>
<path d="M17.0518 14.5846H15.9483V15.6918H17.0518V14.5846Z" fill="white" fill-opacity="0.84"/>
<path d="M49.0518 14.5846H47.9483V15.6918H49.0518V14.5846Z" fill="white" fill-opacity="0.84"/>
<path d="M8.22418 15.6918H7.12073V16.7989H8.22418V15.6918Z" fill="white" fill-opacity="0.84"/>
<path d="M57.8793 15.6918H56.7759V16.7989H57.8793V15.6918Z" fill="white" fill-opacity="0.84"/>
<path d="M12.638 20.1203H11.5345V21.2275H12.638V20.1203Z" fill="white" fill-opacity="0.84"/>
<path d="M15.9483 20.1203H14.8449V21.2275H15.9483V20.1203Z" fill="white" fill-opacity="0.84"/>
<path d="M50.1552 20.1203H49.0518V21.2275H50.1552V20.1203Z" fill="white" fill-opacity="0.84"/>
<path d="M53.4656 20.1203H52.3621V21.2275H53.4656V20.1203Z" fill="white" fill-opacity="0.84"/>
<path d="M15.9483 22.3346H14.8449V23.4418H15.9483V22.3346Z" fill="white" fill-opacity="0.84"/>
<path d="M17.0518 24.5489H15.9483V25.656H17.0518V24.5489Z" fill="white" fill-opacity="0.84"/>
<path d="M47.9483 24.5489H46.8449V25.656H47.9483V24.5489Z" fill="white" fill-opacity="0.84"/>
<path d="M20.3621 26.7632H19.2587V27.8703H20.3621V26.7632Z" fill="white" fill-opacity="0.84"/>
<path d="M22.569 26.7632H21.4656V27.8703H22.569V26.7632Z" fill="white" fill-opacity="0.84"/>
<path d="M43.5345 26.7632H42.4311V27.8703H43.5345V26.7632Z" fill="white" fill-opacity="0.84"/>
<path d="M41.3276 30.0846H40.2242V31.1918H41.3276V30.0846Z" fill="white" fill-opacity="0.84"/>
<path d="M49.0518 30.0846H47.9483V31.1918H49.0518V30.0846Z" fill="white" fill-opacity="0.84"/>
<path d="M36.9138 31.1918H35.8104V32.2989H36.9138V31.1918Z" fill="white" fill-opacity="0.84"/>
<path d="M46.8449 31.1918H45.7414V32.2989H46.8449V31.1918Z" fill="white" fill-opacity="0.84"/>
<path d="M44.638 32.2989H43.5345V33.406H44.638V32.2989Z" fill="white" fill-opacity="0.84"/>
<path d="M50.1552 32.2989H49.0518V33.406H50.1552V32.2989Z" fill="white" fill-opacity="0.84"/>
<path d="M42.4311 33.406H41.3276V34.5132H42.4311V33.406Z" fill="white" fill-opacity="0.84"/>
<path d="M36.9138 34.5132H35.8104V35.6203H36.9138V34.5132Z" fill="white" fill-opacity="0.84"/>
<path d="M18.1552 36.7275H17.0518V37.8346H18.1552V36.7275Z" fill="white" fill-opacity="0.84"/>
<path d="M47.9483 37.8346H46.8449V38.9418H47.9483V37.8346Z" fill="white" fill-opacity="0.84"/>
<path d="M18.1552 45.5846H17.0518V46.6918H18.1552V45.5846Z" fill="white" fill-opacity="0.84"/>
<path d="M47.9483 45.5846H46.8449V46.6918H47.9483V45.5846Z" fill="white" fill-opacity="0.84"/>
<path d="M20.3621 46.6918H19.2587V47.7989H20.3621V46.6918Z" fill="white" fill-opacity="0.84"/>
<path d="M45.7414 46.6918H44.638V47.7989H45.7414V46.6918Z" fill="white" fill-opacity="0.84"/>
<path d="M29.1897 51.1203H28.0862V52.2275H29.1897V51.1203Z" fill="white" fill-opacity="0.84"/>
<path d="M36.9138 51.1203H35.8104V52.2275H36.9138V51.1203Z" fill="white" fill-opacity="0.84"/>
<path d="M22.569 52.2275H21.4656V53.3346H22.569V52.2275Z" fill="white" fill-opacity="0.84"/>
<path d="M43.5345 52.2275H42.4311V53.3346H43.5345V52.2275Z" fill="white" fill-opacity="0.84"/>
<path d="M30.2931 53.3346H29.1897V54.4418H30.2931V53.3346Z" fill="white" fill-opacity="0.84"/>
<path d="M35.8104 53.3346H34.7069V54.4418H35.8104V53.3346Z" fill="white" fill-opacity="0.84"/>
<path d="M31.3966 59.9775V61.0846H33.6035V59.9775H31.3966Z" fill="white" fill-opacity="0.84"/>
<path d="M39.1207 1.29883H38.0172V2.40597H39.1207V1.29883Z" fill="white" fill-opacity="0.93"/>
<path d="M9.32756 13.4774H8.22411V14.5845H9.32756V13.4774Z" fill="white" fill-opacity="0.93"/>
<path d="M56.7758 13.4774H55.6724V14.5845H56.7758V13.4774Z" fill="white" fill-opacity="0.93"/>
<path d="M9.32756 15.6917H8.22411V16.7988H9.32756V15.6917Z" fill="white" fill-opacity="0.93"/>
<path d="M55.6724 15.6917H56.7758V16.7988H57.8793V17.906H56.7758V16.7988H55.6724V15.6917Z" fill="white" fill-opacity="0.93"/>
<path d="M14.8448 21.2274H13.7413V22.3345H14.8448V21.2274Z" fill="white" fill-opacity="0.93"/>
<path d="M7.12066 22.3345H6.01721V23.4417H7.12066V22.3345Z" fill="white" fill-opacity="0.93"/>
<path d="M58.9827 22.3345H57.8793V23.4417H58.9827V22.3345Z" fill="white" fill-opacity="0.93"/>
<path d="M22.5689 25.656H21.4655V26.7631H22.5689V25.656Z" fill="white" fill-opacity="0.93"/>
<path d="M42.431 27.8703H41.3276V28.9774H42.431V27.8703Z" fill="white" fill-opacity="0.93"/>
<path d="M26.9827 28.9774V30.0845V31.1917H28.0862V30.0845V28.9774H26.9827Z" fill="white" fill-opacity="0.93"/>
<path d="M23.6724 30.0845V31.1917V32.2988H24.7758V31.1917V30.0845H23.6724Z" fill="white" fill-opacity="0.93"/>
<path d="M36.9138 30.0845H35.8103V31.1917H36.9138V30.0845Z" fill="white" fill-opacity="0.93"/>
<path d="M49.0517 32.2988H47.9482V33.406H49.0517V32.2988Z" fill="white" fill-opacity="0.93"/>
<path d="M33.6034 35.6203H32.5V36.7274H33.6034V35.6203Z" fill="white" fill-opacity="0.93"/>
<path d="M36.9138 35.6203H35.8103V36.7274H36.9138V35.6203Z" fill="white" fill-opacity="0.93"/>
<path d="M47.9482 36.7274H46.8448V37.8345H47.9482V36.7274Z" fill="white" fill-opacity="0.93"/>
<path d="M6.01721 42.2631H7.12066V43.3703H8.22411V44.4774H7.12066V43.3703H6.01721V42.2631Z" fill="white" fill-opacity="0.93"/>
<path d="M57.8793 42.2631H58.9827V43.3703H57.8793V44.4774H56.7758V43.3703H57.8793V42.2631Z" fill="white" fill-opacity="0.93"/>
<path d="M10.431 43.3703V44.4774H15.9482V43.3703H10.431Z" fill="white" fill-opacity="0.93"/>
<path d="M49.0517 43.3703V44.4774H54.5689V43.3703H49.0517Z" fill="white" fill-opacity="0.93"/>
<path d="M34.7069 53.3345H33.6034V54.4417H34.7069V53.3345Z" fill="white" fill-opacity="0.93"/>
<path d="M24.7758 55.5488H23.6724V56.656H24.7758V55.5488Z" fill="white" fill-opacity="0.93"/>
<path d="M30.2931 55.5488V56.656H31.3965H33.6034H34.7069V55.5488H33.6034H31.3965H30.2931Z" fill="white" fill-opacity="0.93"/>
<path d="M41.3276 55.5488H40.2241V56.656H41.3276V55.5488Z" fill="white" fill-opacity="0.93"/>
<path d="M18.1551 58.8703V59.9774H19.2586H20.362V58.8703H19.2586H18.1551Z" fill="white" fill-opacity="0.93"/>
<path d="M26.9827 58.8703H25.8793V59.9774H26.9827V58.8703Z" fill="white" fill-opacity="0.93"/>
<path d="M39.1207 58.8703H38.0172V59.9774H39.1207V58.8703Z" fill="white" fill-opacity="0.93"/>
<path d="M44.6379 58.8703V59.9774H45.7413H46.8448V58.8703H45.7413H44.6379Z" fill="white" fill-opacity="0.93"/>
<path d="M39.1207 2.40613H38.0173V3.51327H39.1207V2.40613Z" fill="white" fill-opacity="0.97"/>
<path d="M40.2242 6.8347H39.1207V7.94184H40.2242V6.8347Z" fill="white" fill-opacity="0.97"/>
<path d="M14.8449 13.4776H13.7414V14.5847H14.8449V13.4776Z" fill="white" fill-opacity="0.97"/>
<path d="M50.1552 13.4776H51.2587V14.5847H50.1552V15.6918H49.0518V14.5847H50.1552V13.4776Z" fill="white" fill-opacity="0.97"/>
<path d="M7.12073 16.799H8.22418V17.9061H9.32762V19.0133H8.22418V17.9061H7.12073V16.799Z" fill="white" fill-opacity="0.97"/>
<path d="M56.7759 17.9061H55.6725V19.0133H56.7759V17.9061Z" fill="white" fill-opacity="0.97"/>
<path d="M13.7414 20.1204H12.638V21.2276H13.7414V20.1204Z" fill="white" fill-opacity="0.97"/>
<path d="M51.2587 20.1204H52.3621V21.2276H51.2587V22.3347H50.1552V21.2276H51.2587V20.1204Z" fill="white" fill-opacity="0.97"/>
<path d="M47.9483 23.4418H46.8449V24.549H47.9483V23.4418Z" fill="white" fill-opacity="0.97"/>
<path d="M19.2587 25.6561H20.3621V26.7633H21.4656V27.8704H20.3621V26.7633H19.2587V25.6561Z" fill="white" fill-opacity="0.97"/>
<path d="M42.4311 28.9776H41.3276V30.0847H42.4311V28.9776Z" fill="white" fill-opacity="0.97"/>
<path d="M35.8104 31.1918H34.7069V32.299H35.8104V31.1918Z" fill="white" fill-opacity="0.97"/>
<path d="M46.8449 32.299H45.7414V33.4061H46.8449V32.299Z" fill="white" fill-opacity="0.97"/>
<path d="M32.5 33.4061H31.3966V34.5133H32.5V33.4061Z" fill="white" fill-opacity="0.97"/>
<path d="M44.638 33.4061H43.5345V34.5133H44.638V33.4061Z" fill="white" fill-opacity="0.97"/>
<path d="M38.0173 34.5133H36.9138V35.6204H38.0173V34.5133Z" fill="white" fill-opacity="0.97"/>
<path d="M42.4311 34.5133H41.3276V35.6204H42.4311V34.5133Z" fill="white" fill-opacity="0.97"/>
<path d="M22.569 38.9418H21.4656V40.049H22.569V38.9418Z" fill="white" fill-opacity="0.97"/>
<path d="M43.5345 38.9418H42.4311V40.049H43.5345V38.9418Z" fill="white" fill-opacity="0.97"/>
<path d="M8.22418 42.2633H7.12073V43.3704H8.22418V42.2633Z" fill="white" fill-opacity="0.97"/>
<path d="M57.8793 42.2633H56.7759V43.3704H57.8793V42.2633Z" fill="white" fill-opacity="0.97"/>
<path d="M17.0518 44.4776H15.9483V45.5847H17.0518V44.4776Z" fill="white" fill-opacity="0.97"/>
<path d="M49.0518 44.4776H47.9483V45.5847H49.0518V44.4776Z" fill="white" fill-opacity="0.97"/>
<path d="M30.2931 51.1204H29.1897V52.2276H30.2931V51.1204Z" fill="white" fill-opacity="0.97"/>
<path d="M35.8104 51.1204H34.7069V52.2276H35.8104V51.1204Z" fill="white" fill-opacity="0.97"/>
<path d="M42.4311 52.2276H41.3276V53.3347H42.4311V52.2276Z" fill="white" fill-opacity="0.97"/>
<path d="M31.3966 53.3347H30.2931V54.4418H31.3966V53.3347Z" fill="white" fill-opacity="0.97"/>
<path d="M25.8793 55.549H24.7759V56.6561H25.8793V55.549Z" fill="white" fill-opacity="0.97"/>
<path d="M40.2242 55.549H39.1207V56.6561H40.2242V55.549Z" fill="white" fill-opacity="0.97"/>
<path d="M28.0862 58.8704H26.9828V59.9776H28.0862V58.8704Z" fill="white" fill-opacity="0.97"/>
<path d="M38.0173 58.8704H36.9138V59.9776H38.0173V58.8704Z" fill="white" fill-opacity="0.97"/>
<path d="M38.0172 1.29883H36.9137V2.40597H38.0172V1.29883Z" fill="white" fill-opacity="0.98"/>
<path d="M39.1206 3.51311V2.40597H40.2241L41.3275 3.51311L42.431 4.62026V5.7274L41.3275 6.83454H40.2241H39.1206V7.94169H38.0172V9.04883H36.9137V7.94169H38.0172V6.83454H39.1206L38.0172 5.7274H22.5689V4.62026H38.0172L39.1206 3.51311Z" fill="white" fill-opacity="0.98"/>
<path d="M10.431 13.4774V12.3703H11.5344H12.6379H13.7413V13.4774H12.6379H11.5344H10.431V14.5845H9.32753V15.6917H8.22408V14.5845H9.32753V13.4774H10.431Z" fill="white" fill-opacity="0.98"/>
<path d="M51.2586 13.4774V12.3703H52.362H53.4655H54.5689V13.4774H55.6724V14.5845H56.7758V15.6917H55.6724V14.5845H54.5689V13.4774H53.4655H52.362H51.2586Z" fill="white" fill-opacity="0.98"/>
<path d="M14.8448 14.5845V13.4774H15.9482V14.5845V15.6917H17.0517V16.7988V17.906V19.0131H15.9482V20.1203H14.8448V21.2274H13.7413V22.3345H14.8448V23.4417H15.9482H17.0517V24.5488H18.1551V25.656H19.2586V26.7631H18.1551V25.656H17.0517V24.5488H15.9482H14.8448V23.4417H13.7413V22.3345H12.6379H9.32753H8.22408V23.4417H7.12064V24.5488V40.0488V41.156V42.2631H6.01719V41.156V40.0488V34.5131V33.406L4.91374 32.2988L3.81029 31.1917L2.70684 32.2988V58.8703V59.9774H3.81029H17.0517H18.1551H19.2586V61.0845H18.1551H17.0517H4.91374H3.81029H2.70684V59.9774H1.60339V58.8703V57.7631V31.1917V30.0845H2.70684H3.81029H4.91374L6.01719 28.9774V24.5488V23.4417H7.12064V22.3345H8.22408V21.2274L9.32753 20.1203H8.22408V19.0131H9.32753V20.1203H10.431H11.5344L12.6379 21.2274H13.7413V20.1203H14.8448V19.0131H15.9482V17.906V16.7988V15.6917H14.8448V14.5845Z" fill="white" fill-opacity="0.98"/>
<path d="M50.1551 13.4774H49.0517V14.5845H50.1551V13.4774Z" fill="white" fill-opacity="0.98"/>
<path d="M47.9482 16.7988V15.6917H49.0517V16.7988V17.906V19.0131H50.1551V20.1203H51.2586V21.2274H52.362L53.4655 20.1203H54.5689H55.6724V19.0131H56.7758V20.1203H55.6724L56.7758 21.2274V22.3345H57.8793V23.4417H58.9827V24.5488V28.9774L60.0862 30.0845H61.1896H62.293H63.3965V31.1917V57.7631V58.8703V59.9774H62.293V61.0845H61.1896H60.0862H47.9482H46.8448H45.7413V59.9774H46.8448H47.9482H61.1896H62.293V58.8703V32.2988L61.1896 31.1917L60.0862 32.2988L58.9827 33.406V34.5131V40.0488V41.156V42.2631H57.8793V41.156V40.0488V24.5488V23.4417H56.7758V22.3345H55.6724H52.362H51.2586V23.4417H50.1551H49.0517V24.5488H47.9482V23.4417H49.0517V22.3345H50.1551H51.2586V21.2274H50.1551V20.1203H49.0517V19.0131H47.9482V17.906V16.7988Z" fill="white" fill-opacity="0.98"/>
<path d="M45.7413 24.5488H46.8448V25.656H45.7413V26.7631H44.6379V27.8703H43.5344V28.9774H42.431V27.8703H43.5344V26.7631H44.6379V25.656H45.7413V24.5488Z" fill="white" fill-opacity="0.98"/>
<path d="M22.5689 25.656V26.7631H23.6724H24.7758H25.8793H26.9827L28.0862 27.8703V28.9774V30.0845H29.1896V28.9774V27.8703V26.7631V25.656H28.0862H26.9827H25.8793H24.7758H23.6724H22.5689Z" fill="white" fill-opacity="0.98"/>
<path d="M40.2241 28.9774H41.3275V30.0845H40.2241V31.1917H39.1206H38.0172H36.9137V30.0845H38.0172H39.1206H40.2241V28.9774Z" fill="white" fill-opacity="0.98"/>
<path d="M15.9482 31.1917V30.0845H17.0517H18.1551V31.1917H19.2586H20.362H21.4655H22.5689H23.6724V32.2988H22.5689H21.4655H20.362H19.2586H18.1551V31.1917L17.0517 32.2988V33.406V34.5131V35.6203V36.7274V37.8345H18.1551H19.2586H20.362H21.4655V38.9417H20.362H19.2586H18.1551H17.0517V37.8345H15.9482V36.7274V35.6203V34.5131V33.406V32.2988V31.1917Z" fill="white" fill-opacity="0.98"/>
<path d="M24.7758 30.0845V31.1917H25.8793H26.9827V30.0845H25.8793H24.7758Z" fill="white" fill-opacity="0.98"/>
<path d="M49.0517 30.0845L47.9482 31.1917H46.8448V32.2988H47.9482H49.0517H50.1551V31.1917V30.0845H49.0517Z" fill="white" fill-opacity="0.98"/>
<path d="M32.4999 32.2988V31.1917H33.6034H34.7068V32.2988H33.6034H32.4999V33.406H31.3965V32.2988H32.4999Z" fill="white" fill-opacity="0.98"/>
<path d="M45.7413 32.2988H44.6379V33.406H45.7413V32.2988Z" fill="white" fill-opacity="0.98"/>
<path d="M43.5344 33.406H42.431V34.5131H43.5344V33.406Z" fill="white" fill-opacity="0.98"/>
<path d="M47.9482 33.406V34.5131V35.6203V36.7274V37.8345H49.0517V36.7274V35.6203V34.5131V33.406H47.9482Z" fill="white" fill-opacity="0.98"/>
<path d="M32.4999 34.5131H33.6034V35.6203H34.7068H35.8103V36.7274H34.7068H33.6034V35.6203H32.4999V34.5131Z" fill="white" fill-opacity="0.98"/>
<path d="M38.0172 34.5131V35.6203H39.1206H40.2241H41.3275V34.5131H40.2241H39.1206H38.0172Z" fill="white" fill-opacity="0.98"/>
<path d="M43.5344 37.8345V38.9417H44.6379H45.7413H46.8448V37.8345H45.7413H44.6379H43.5344Z" fill="white" fill-opacity="0.98"/>
<path d="M22.5689 38.9417H23.6724V40.0488H24.7758V41.156V42.2631H25.8793V43.3703V44.4774H26.9827V45.5845V46.6917H28.0862V47.7988V48.906H29.1896V50.0131V51.1203H28.0862V50.0131V48.906H26.9827V47.7988V46.6917H25.8793V45.5845V44.4774H24.7758V43.3703V42.2631H23.6724V41.156V40.0488H22.5689V38.9417Z" fill="white" fill-opacity="0.98"/>
<path d="M41.3275 38.9417H42.431V40.0488H41.3275V41.156V42.2631H40.2241V43.3703V44.4774H39.1206V45.5845V46.6917H38.0172V47.7988V48.906H36.9137V50.0131V51.1203H35.8103V50.0131V48.906H36.9137V47.7988V46.6917H38.0172V45.5845V44.4774H39.1206V43.3703V42.2631H40.2241V41.156V40.0488H41.3275V38.9417Z" fill="white" fill-opacity="0.98"/>
<path d="M8.22408 43.3703V44.4774H9.32753H10.431V43.3703H9.32753H8.22408Z" fill="white" fill-opacity="0.98"/>
<path d="M54.5689 43.3703V44.4774H55.6724H56.7758V43.3703H55.6724H54.5689Z" fill="white" fill-opacity="0.98"/>
<path d="M17.0517 44.4774H18.1551V45.5845H19.2586V46.6917V47.7988H20.362L21.4655 48.906V50.0131V51.1203H22.5689V52.2274H23.6724V53.3345V54.4417H24.7758V55.5488H23.6724V54.4417H22.5689V53.3345V52.2274H21.4655V51.1203L20.362 52.2274V53.3345V58.8703H19.2586V57.7631V48.906V47.7988H18.1551V46.6917V45.5845H17.0517V44.4774Z" fill="white" fill-opacity="0.98"/>
<path d="M46.8448 44.4774H47.9482V45.5845H46.8448V46.6917V47.7988H45.7413V48.906V57.7631V58.8703H44.6379V53.3345V52.2274L43.5344 51.1203V52.2274H42.431V51.1203H43.5344V50.0131V48.906L44.6379 47.7988H45.7413V46.6917V45.5845H46.8448V44.4774Z" fill="white" fill-opacity="0.98"/>
<path d="M30.293 52.2274H29.1896V53.3345H30.293V52.2274Z" fill="white" fill-opacity="0.98"/>
<path d="M35.8103 52.2274H34.7068V53.3345H35.8103V52.2274Z" fill="white" fill-opacity="0.98"/>
<path d="M41.3275 53.3345H42.431V54.4417H41.3275V55.5488H40.2241V54.4417H41.3275V53.3345Z" fill="white" fill-opacity="0.98"/>
<path d="M31.3965 54.4417H30.293V55.5488H31.3965V54.4417Z" fill="white" fill-opacity="0.98"/>
<path d="M34.7068 54.4417H33.6034V55.5488H34.7068V54.4417Z" fill="white" fill-opacity="0.98"/>
<path d="M24.7758 56.656H25.8793V57.7631H26.9827V58.8703H25.8793V57.7631H24.7758V56.656Z" fill="white" fill-opacity="0.98"/>
<path d="M31.3965 57.7631V56.656H33.6034V57.7631V58.8703V59.9774H34.7068H35.8103H36.9137H38.0172V61.0845H36.9137H35.8103H34.7068H33.6034V59.9774H31.3965V61.0845H30.293H29.1896H28.0862H26.9827V59.9774H28.0862H29.1896H30.293H31.3965V58.8703V57.7631Z" fill="white" fill-opacity="0.98"/>
<path d="M39.1206 56.656H40.2241V57.7631H39.1206V58.8703H38.0172V57.7631H39.1206V56.656Z" fill="white" fill-opacity="0.98"/>
<path d="M22.569 3.51318H21.4656V4.62033H22.569V3.51318Z" fill="white" fill-opacity="0.14"/>
<path d="M11.5345 11.2632H10.4311V12.3703H11.5345V11.2632Z" fill="white" fill-opacity="0.14"/>
<path d="M54.569 11.2632H53.4656V12.3703H54.569V11.2632Z" fill="white" fill-opacity="0.14"/>
<path d="M8.22418 12.3703H9.32762V13.4775H8.22418V14.5846H7.12073V13.4775H8.22418V12.3703Z" fill="white" fill-opacity="0.14"/>
<path d="M22.569 12.3703H21.4656V13.4775H22.569V12.3703Z" fill="white" fill-opacity="0.14"/>
<path d="M55.6725 12.3703H56.7759V13.4775H57.8793V14.5846H56.7759V13.4775H55.6725V12.3703Z" fill="white" fill-opacity="0.14"/>
<path d="M43.5345 14.5846H42.4311V15.6918H43.5345V14.5846Z" fill="white" fill-opacity="0.14"/>
<path d="M18.1552 15.6918H17.0518V16.7989H18.1552V15.6918Z" fill="white" fill-opacity="0.14"/>
<path d="M9.32762 17.906H10.4311V19.0132H11.5345V20.1203H10.4311V19.0132H9.32762V17.906Z" fill="white" fill-opacity="0.14"/>
<path d="M26.9828 17.906H25.8793V19.0132H26.9828V17.906Z" fill="white" fill-opacity="0.14"/>
<path d="M29.1897 17.906H28.0862V19.0132H29.1897V17.906Z" fill="white" fill-opacity="0.14"/>
<path d="M54.569 17.906H55.6725V19.0132H54.569V20.1203H53.4656V19.0132H54.569V17.906Z" fill="white" fill-opacity="0.14"/>
<path d="M47.9483 22.3346H46.8449V23.4418H47.9483V22.3346Z" fill="white" fill-opacity="0.14"/>
<path d="M43.5345 25.656H42.4311V26.7632H43.5345V25.656Z" fill="white" fill-opacity="0.14"/>
<path d="M15.9483 28.9775H14.8449V30.0846H15.9483V28.9775Z" fill="white" fill-opacity="0.14"/>
<path d="M49.0518 28.9775H50.1552V30.0846H51.2587V31.1918H50.1552V30.0846H49.0518V28.9775Z" fill="white" fill-opacity="0.14"/>
<path d="M32.5 30.0846H31.3966V31.1918H32.5V30.0846Z" fill="white" fill-opacity="0.14"/>
<path d="M34.7069 36.7275H33.6035V37.8346H34.7069V36.7275Z" fill="white" fill-opacity="0.14"/>
<path d="M44.638 36.7275H43.5345V37.8346H44.638V36.7275Z" fill="white" fill-opacity="0.14"/>
<path d="M29.1897 46.6918H28.0862V47.7989H29.1897V46.6918Z" fill="white" fill-opacity="0.14"/>
<path d="M36.9138 46.6918H35.8104V47.7989H36.9138V46.6918Z" fill="white" fill-opacity="0.14"/>
<path d="M30.2931 48.906H29.1897V50.0132H30.2931V48.906Z" fill="white" fill-opacity="0.14"/>
<path d="M35.8104 48.906H34.7069V50.0132H35.8104V48.906Z" fill="white" fill-opacity="0.14"/>
<path d="M31.3966 51.1203H30.2931V52.2275H31.3966V51.1203Z" fill="white" fill-opacity="0.14"/>
<path d="M34.7069 51.1203H33.6035V52.2275H34.7069V51.1203Z" fill="white" fill-opacity="0.14"/>
<path d="M41.3276 52.2275H40.2242V53.3346H41.3276V52.2275Z" fill="white" fill-opacity="0.14"/>
<path d="M26.9828 55.5489H25.8793V56.656H26.9828V55.5489Z" fill="white" fill-opacity="0.14"/>
<path d="M39.1207 55.5489H38.0173V56.656H39.1207V55.5489Z" fill="white" fill-opacity="0.14"/>
<path d="M43.5344 3.51318H42.431V4.62033H43.5344V3.51318Z" fill="white" fill-opacity="0.17"/>
<path d="M25.8793 10.156H24.7758V11.2632H25.8793V10.156Z" fill="white" fill-opacity="0.17"/>
<path d="M22.5689 14.5846H21.4655V15.6918H22.5689V14.5846Z" fill="white" fill-opacity="0.17"/>
<path d="M47.9482 15.6918H46.8448V16.7989H47.9482V15.6918Z" fill="white" fill-opacity="0.17"/>
<path d="M7.12064 21.2275H6.01719V22.3346H7.12064V21.2275Z" fill="white" fill-opacity="0.17"/>
<path d="M58.9827 21.2275H57.8793V22.3346H58.9827V21.2275Z" fill="white" fill-opacity="0.17"/>
<path d="M20.362 24.5489H19.2586V25.656H20.362V24.5489Z" fill="white" fill-opacity="0.17"/>
<path d="M24.7758 24.5489H23.6724V25.656H24.7758V24.5489Z" fill="white" fill-opacity="0.17"/>
<path d="M42.431 26.7632H41.3275V27.8703H42.431V26.7632Z" fill="white" fill-opacity="0.17"/>
<path d="M2.70684 28.9775H1.60339V30.0846H2.70684V28.9775Z" fill="white" fill-opacity="0.17"/>
<path d="M18.1551 28.9775H17.0517V30.0846H18.1551V28.9775Z" fill="white" fill-opacity="0.17"/>
<path d="M25.8793 28.9775H24.7758V30.0846H25.8793V28.9775Z" fill="white" fill-opacity="0.17"/>
<path d="M39.1206 28.9775H38.0172V30.0846H39.1206V28.9775Z" fill="white" fill-opacity="0.17"/>
<path d="M63.3965 28.9775H62.293V30.0846H63.3965V28.9775Z" fill="white" fill-opacity="0.17"/>
<path d="M40.2241 33.406H39.1206V34.5132H40.2241V33.406Z" fill="white" fill-opacity="0.17"/>
<path d="M28.0862 44.4775H26.9827V45.5846H28.0862V44.4775Z" fill="white" fill-opacity="0.17"/>
<path d="M38.0172 44.4775H36.9137V45.5846H38.0172V44.4775Z" fill="white" fill-opacity="0.17"/>
<path d="M43.5344 48.906H42.431V50.0132H43.5344V48.906Z" fill="white" fill-opacity="0.17"/>
<path d="M24.7758 52.2275H23.6724V53.3346H24.7758V52.2275Z" fill="white" fill-opacity="0.17"/>
<path d="M13.7414 11.2632H12.6379V12.3703H13.7414V11.2632Z" fill="white" fill-opacity="0.22"/>
<path d="M52.3621 11.2632H51.2586V12.3703H52.3621V11.2632Z" fill="white" fill-opacity="0.22"/>
<path d="M26.9828 42.2632H25.8793V43.3703H26.9828V42.2632Z" fill="white" fill-opacity="0.22"/>
<path d="M39.1207 42.2632H38.0173V43.3703H39.1207V42.2632Z" fill="white" fill-opacity="0.22"/>
<path d="M20.3621 45.5846H19.2586V46.6918H20.3621V45.5846Z" fill="white" fill-opacity="0.22"/>
<path d="M45.7414 45.5846H44.6379V46.6918H45.7414V45.5846Z" fill="white" fill-opacity="0.22"/>
<path d="M22.569 48.906H21.4655V50.0132H22.569V48.906Z" fill="white" fill-opacity="0.22"/>
<path d="M26.9827 12.3704V13.4775H42.431L28.0862 12.3704H26.9827Z" fill="white" fill-opacity="0.25"/>
<path d="M17.0517 13.4775H15.9482V14.5846H17.0517V13.4775Z" fill="white" fill-opacity="0.25"/>
<path d="M17.0517 22.3346H15.9482V23.4418H17.0517V22.3346Z" fill="white" fill-opacity="0.25"/>
<path d="M25.8793 40.0489H24.7758V41.1561H25.8793V40.0489Z" fill="white" fill-opacity="0.25"/>
<path d="M40.2241 40.0489H39.1207V41.1561H40.2241V40.0489Z" fill="white" fill-opacity="0.25"/>
<path d="M40.2242 1.29883H39.1207V2.40597H40.2242V1.29883Z" fill="white" fill-opacity="0.3"/>
<path d="M38.0173 9.04883H36.9138V10.156H38.0173V9.04883Z" fill="white" fill-opacity="0.3"/>
<path d="M15.9483 12.3703H14.8448V13.4774H15.9483V12.3703Z" fill="white" fill-opacity="0.3"/>
<path d="M49.0517 12.3703H50.1552V13.4774H49.0517V14.5845H47.9483V13.4774H49.0517V12.3703Z" fill="white" fill-opacity="0.3"/>
<path d="M25.8793 16.7988H24.7759V17.906H25.8793V16.7988Z" fill="white" fill-opacity="0.3"/>
<path d="M30.2931 25.656H29.1897V26.7631H30.2931V25.656Z" fill="white" fill-opacity="0.3"/>
<path d="M41.3276 27.8703H40.2242V28.9774H41.3276V27.8703Z" fill="white" fill-opacity="0.3"/>
<path d="M20.3621 30.0845H19.2586V31.1917H20.3621V30.0845Z" fill="white" fill-opacity="0.3"/>
<path d="M20.3621 36.7274H19.2586V37.8345H20.3621V36.7274Z" fill="white" fill-opacity="0.3"/>
<path d="M28.0863 9.04895H26.9828V10.1561H28.0863V9.04895Z" fill="white" fill-opacity="0.34"/>
<path d="M29.1897 16.799H28.0863V17.9061H29.1897V16.799Z" fill="white" fill-opacity="0.34"/>
<path d="M22.569 30.0847H21.4656V31.1918H22.569V30.0847Z" fill="white" fill-opacity="0.34"/>
<path d="M36.9138 7.94177H35.8104V9.04892H36.9138V7.94177Z" fill="white" fill-opacity="0.39"/>
<path d="M29.1897 10.1561H28.0862V11.2632H29.1897V10.1561Z" fill="white" fill-opacity="0.39"/>
<path d="M28.0862 15.6918H26.9828V16.7989H28.0862V15.6918Z" fill="white" fill-opacity="0.39"/>
<path d="M6.01727 23.4418H4.91382V24.5489H6.01727V23.4418Z" fill="white" fill-opacity="0.39"/>
<path d="M60.0862 23.4418H58.9828V24.5489H60.0862V23.4418Z" fill="white" fill-opacity="0.39"/>
<path d="M28.0862 26.7632H26.9828V27.8703H28.0862V26.7632Z" fill="white" fill-opacity="0.39"/>
<path d="M47.9483 30.0846H46.8449V31.1918H47.9483V30.0846Z" fill="white" fill-opacity="0.39"/>
<path d="M45.7414 31.1918H44.638V32.2989H45.7414V31.1918Z" fill="white" fill-opacity="0.39"/>
<path d="M43.5345 32.2989H42.4311V33.4061H43.5345V32.2989Z" fill="white" fill-opacity="0.39"/>
<path d="M42.4311 37.8346H41.3276V38.9418H42.4311V37.8346Z" fill="white" fill-opacity="0.39"/>
<path d="M9.32761 42.2632H8.22416V43.3703H9.32761V42.2632Z" fill="white" fill-opacity="0.39"/>
<path d="M56.7759 42.2632H55.6724V43.3703H56.7759V42.2632Z" fill="white" fill-opacity="0.39"/>
<path d="M18.1552 43.3703H17.0517V44.4775H18.1552V43.3703Z" fill="white" fill-opacity="0.39"/>
<path d="M47.9483 43.3703H46.8449V44.4775H47.9483V43.3703Z" fill="white" fill-opacity="0.39"/>
<path d="M28.0862 57.7632H26.9828V58.8703H28.0862V57.7632Z" fill="white" fill-opacity="0.39"/>
<path d="M38.0173 57.7632H36.9138V58.8703H38.0173V57.7632Z" fill="white" fill-opacity="0.39"/>
<path d="M24.7759 11.2632H23.6724V12.3703H24.7759V11.2632Z" fill="white" fill-opacity="0.46"/>
<path d="M26.9828 14.5846V15.6918H28.0862H42.431V14.5846H26.9828Z" fill="white" fill-opacity="0.46"/>
<path d="M29.1897 24.5489H28.0862V25.656H29.1897V24.5489Z" fill="white" fill-opacity="0.46"/>
<path d="M23.6724 37.8346H22.569V38.9418H23.6724V37.8346Z" fill="white" fill-opacity="0.46"/>
<path d="M25.8793 54.4418H24.7759V55.5489H25.8793V54.4418Z" fill="white" fill-opacity="0.46"/>
<path d="M40.2241 54.4418H39.1207V55.5489H40.2241V54.4418Z" fill="white" fill-opacity="0.46"/>
<path d="M28.0862 17.906H26.9828V19.0131H28.0862V17.906Z" fill="white" fill-opacity="0.49"/>
<path d="M46.8448 23.4417H45.7414V24.5489H46.8448V23.4417Z" fill="white" fill-opacity="0.49"/>
<path d="M23.6724 51.1203H22.569V52.2274H23.6724V51.1203Z" fill="white" fill-opacity="0.49"/>
<path d="M42.431 51.1203H41.3276V52.2274H42.431V51.1203Z" fill="white" fill-opacity="0.49"/>
<path d="M19.2586 44.4775H18.1552V45.5847H19.2586V44.4775Z" fill="white" fill-opacity="0.52"/>
<path d="M46.8448 44.4775H45.7414V45.5847H46.8448V44.4775Z" fill="white" fill-opacity="0.52"/>
<path d="M21.4655 47.799H20.362V48.9061H21.4655V47.799Z" fill="white" fill-opacity="0.52"/>
<path d="M44.6379 47.799H43.5345V48.9061H44.6379V47.799Z" fill="white" fill-opacity="0.52"/>
<path d="M39.1207 5.72742H38.0173V6.83456H39.1207V5.72742Z" fill="white" fill-opacity="0.55"/>
<path d="M26.9828 11.2631H28.0862V12.3703H26.9828V13.4774H25.8793V12.3703H26.9828V11.2631Z" fill="white" fill-opacity="0.55"/>
<path d="M14.8448 19.0131H13.7414V20.1203H14.8448V19.0131Z" fill="white" fill-opacity="0.55"/>
<path d="M51.2586 19.0131H50.1552V20.1203H51.2586V19.0131Z" fill="white" fill-opacity="0.55"/>
<path d="M18.1552 23.4417H17.0517V24.5488H18.1552V23.4417Z" fill="white" fill-opacity="0.55"/>
<path d="M3.81036 31.1917H2.70691V32.2988H3.81036V31.1917Z" fill="white" fill-opacity="0.55"/>
<path d="M62.2931 31.1917H61.1897V32.2988H62.2931V31.1917Z" fill="white" fill-opacity="0.55"/>
<path d="M41.3275 2.40613H40.2241V3.51327H41.3275V2.40613Z" fill="white" fill-opacity="0.61"/>
<path d="M22.5689 13.4776H21.4655V14.5847H22.5689V13.4776Z" fill="white" fill-opacity="0.61"/>
<path d="M43.5344 13.4776H42.431V14.5847H43.5344V13.4776Z" fill="white" fill-opacity="0.61"/>
<path d="M4.91375 31.1918H3.8103V32.299H4.91375V31.1918Z" fill="white" fill-opacity="0.61"/>
<path d="M61.1896 31.1918H60.0862V32.299H61.1896V31.1918Z" fill="white" fill-opacity="0.61"/>
<path d="M42.431 5.72742H41.3275V6.83456H42.431V5.72742Z" fill="white" fill-opacity="0.68"/>
<path d="M45.7413 24.5488H44.6379V25.656H45.7413V24.5488Z" fill="white" fill-opacity="0.68"/>
<path d="M24.7758 38.9417H23.6724V40.0488H24.7758V38.9417Z" fill="white" fill-opacity="0.68"/>
<path d="M41.3275 38.9417H40.2241V40.0488H41.3275V38.9417Z" fill="white" fill-opacity="0.68"/>
<path d="M23.6724 12.3704H22.569V13.4775H23.6724V12.3704Z" fill="white" fill-opacity="0.74"/>
<path d="M21.4655 51.1204H20.3621V52.2275H21.4655V51.1204Z" fill="white" fill-opacity="0.74"/>
<path d="M44.6379 51.1204H43.5345V52.2275H44.6379V51.1204Z" fill="white" fill-opacity="0.74"/>
<path d="M26.9827 10.156H25.8793V11.2631H26.9827V10.156Z" fill="white" fill-opacity="0.8"/>
<path d="M18.1552 31.1918H17.0518V32.2989H18.1552V31.1918Z" fill="white" fill-opacity="0.84"/>
<path d="M26.9828 16.799H25.8793V17.9061H26.9828V16.799Z" fill="white" fill-opacity="0.93"/>
<path d="M6.01727 32.299H4.91382V33.4061H6.01727V32.299Z" fill="white" fill-opacity="0.93"/>
<path d="M60.0862 32.299H58.9828V33.4061H60.0862V32.299Z" fill="white" fill-opacity="0.93"/>
<path d="M25.8793 11.2632H24.7759V12.3703H25.8793V11.2632Z" fill="white" fill-opacity="0.97"/>
<path d="M26.9828 15.6918H25.8793V16.7989H26.9828V15.6918Z" fill="white" fill-opacity="0.97"/>
<path d="M26.9828 10.156H28.0862V11.2631H26.9828V12.3703H25.8793L26.9828 13.4774H42.431V14.5846H26.9828L25.8793 15.6917V16.7989H24.7759L23.6724 15.6917L22.569 14.5846V13.4774L23.6724 12.3703H24.7759H25.8793V11.2631H26.9828V10.156Z" fill="white" fill-opacity="0.98"/>
<path d="M28.0862 16.7989H26.9828V17.906H28.0862V16.7989Z" fill="white" fill-opacity="0.98"/>
<path d="M24.7758 15.6918H23.6724V16.7989H24.7758V15.6918Z" fill="white" fill-opacity="0.55"/>
<path d="M26.9827 14.5846H25.8793V15.6917H26.9827V14.5846Z" fill="white" fill-opacity="0.61"/>
<path d="M23.6724 14.5846H22.569V15.6917H23.6724V14.5846Z" fill="white" fill-opacity="0.84"/>
</svg>
